<svg width="50" height="50" viewBox="0 0 50 50" fill="none" xmlns="http://www.w3.org/2000/svg">
<circle cx="25" cy="25" r="24.5" stroke="#A17550"/>
<path d="M38 25.0785C37.9997 22.5789 37.2875 20.1317 35.9478 18.0267C34.6082 15.9216 32.6971 14.2469 30.4409 13.2007C28.1846 12.1546 25.6777 11.7808 23.2169 12.1236C20.7561 12.4665 18.4444 13.5116 16.5556 15.1353C14.6668 16.759 13.2799 18.8932 12.5592 21.2853C11.8384 23.6774 11.8139 26.2272 12.4887 28.6329C13.1634 31.0386 14.5091 33.1993 16.3664 34.8594C18.2237 36.5194 20.5149 37.6093 22.9687 37.9998V28.8596H19.6675V25.0782H22.9687V22.1968C22.9687 18.9185 24.9096 17.1083 27.8795 17.1083C28.8544 17.122 29.827 17.2074 30.7896 17.3638V20.5832H29.1491C27.5343 20.5832 27.0305 21.5914 27.0305 22.6258V25.0787H30.6364L30.0608 28.8601H27.0313V38C30.0891 37.5126 32.8737 35.9435 34.8844 33.5749C36.895 31.2062 37.9998 28.1935 38 25.0785Z" fill="#A17550"/>
</svg>
