<svg width="43" height="43" viewBox="0 0 43 43" fill="none" xmlns="http://www.w3.org/2000/svg">
<path fill-rule="evenodd" clip-rule="evenodd" d="M21.5 43C9.632 43 0 33.3895 0 21.5C0 9.632 9.632 0 21.5 0C33.3895 0 43 9.632 43 21.5C43 33.3895 33.3895 43 21.5 43ZM28.3583 29.4765C28.6163 29.627 28.8958 29.713 29.1968 29.713C29.7343 29.713 30.2718 29.4335 30.5728 28.9175C31.0243 28.165 30.7878 27.176 30.0138 26.703L22.3598 22.145V12.212C22.3598 11.309 21.6288 10.5995 20.7473 10.5995C19.8658 10.5995 19.1348 11.309 19.1348 12.212V23.0695C19.1348 23.6285 19.4358 24.1445 19.9303 24.4455L28.3583 29.4765Z" fill="#87888A"/>
</svg>
