<svg width="50" height="50" viewBox="0 0 50 50" fill="none" xmlns="http://www.w3.org/2000/svg">
<circle cx="25" cy="25" r="24.5" stroke="#A17550"/>
<path d="M27.0139 24.7698C27.0139 25.2138 26.8823 25.6478 26.6356 26.0169C26.3889 26.3861 26.0383 26.6738 25.6282 26.8437C25.218 27.0136 24.7666 27.058 24.3312 26.9714C23.8957 26.8848 23.4958 26.6709 23.1818 26.357C22.8679 26.043 22.6541 25.6431 22.5675 25.2076C22.4809 24.7722 22.5254 24.3208 22.6953 23.9106C22.8653 23.5005 23.153 23.1499 23.5222 22.9033C23.8913 22.6566 24.3254 22.525 24.7693 22.525C25.3647 22.5251 25.9356 22.7616 26.3565 23.1826C26.7774 23.6035 27.0139 24.1745 27.0139 24.7698V24.7698Z" fill="#A17550"/>
<path d="M28.5602 17.9856H20.9781C20.1846 17.9865 19.4239 18.3021 18.8628 18.8632C18.3018 19.4243 17.9862 20.1851 17.9854 20.9785V28.5606C17.9862 29.3541 18.3018 30.1149 18.8629 30.676C19.424 31.2371 20.1848 31.5527 20.9783 31.5536H28.5604C29.3539 31.5527 30.1147 31.2371 30.6758 30.676C31.2369 30.1149 31.5525 29.3541 31.5533 28.5606V20.9785C31.5525 20.185 31.2368 19.4242 30.6757 18.8631C30.1146 18.302 29.3537 17.9864 28.5602 17.9856V17.9856ZM24.7692 28.5105C24.0292 28.5105 23.3059 28.2911 22.6907 27.8801C22.0755 27.469 21.596 26.8847 21.3128 26.2011C21.0296 25.5175 20.9556 24.7653 21.0999 24.0395C21.2443 23.3138 21.6006 22.6472 22.1238 22.124C22.647 21.6008 23.3136 21.2445 24.0393 21.1001C24.765 20.9558 25.5172 21.0299 26.2008 21.313C26.8844 21.5962 27.4687 22.0757 27.8798 22.6909C28.2909 23.3062 28.5103 24.0295 28.5103 24.7694C28.5092 25.7612 28.1147 26.7121 27.4134 27.4135C26.712 28.1148 25.7612 28.5094 24.7693 28.5105H24.7692ZM29.0589 21.2278C28.911 21.2278 28.7663 21.1839 28.6433 21.1017C28.5202 21.0195 28.4243 20.9027 28.3677 20.766C28.3111 20.6292 28.2962 20.4788 28.3251 20.3337C28.354 20.1885 28.4252 20.0552 28.5299 19.9506C28.6345 19.8459 28.7678 19.7747 28.913 19.7458C29.0581 19.7169 29.2085 19.7318 29.3453 19.7884C29.482 19.845 29.5988 19.9409 29.681 20.064C29.7632 20.187 29.8071 20.3317 29.8071 20.4796C29.8071 20.678 29.7283 20.8683 29.588 21.0086C29.4478 21.1489 29.2575 21.2278 29.0591 21.2278H29.0589Z" fill="#A17550"/>
<path d="M30.8053 12H18.7341C16.9487 12.002 15.2371 12.7122 13.9746 13.9746C12.7122 15.2371 12.002 16.9487 12 18.7341V30.8055C12.0021 32.5908 12.7122 34.3025 13.9747 35.5649C15.2371 36.8273 16.9487 37.5374 18.7341 37.5394H30.8055C32.5908 37.5373 34.3025 36.8272 35.5649 35.5647C36.8273 34.3023 37.5374 32.5907 37.5394 30.8053V18.7341C37.5374 16.9487 36.8273 15.2371 35.5648 13.9746C34.3024 12.7122 32.5907 12.002 30.8053 12V12ZM33.0501 28.5607C33.0487 29.751 32.5753 30.8921 31.7337 31.7337C30.8921 32.5753 29.751 33.0487 28.5607 33.0501H20.9787C19.7884 33.0487 18.6473 32.5753 17.8057 31.7337C16.9641 30.8921 16.4907 29.751 16.4893 28.5607V20.9787C16.4907 19.7884 16.9641 18.6473 17.8057 17.8057C18.6473 16.9641 19.7884 16.4907 20.9787 16.4893H28.5607C29.751 16.4907 30.8921 16.9641 31.7337 17.8057C32.5753 18.6473 33.0487 19.7884 33.0501 20.9787V28.5607Z" fill="#A17550"/>
</svg>
