<svg width="301" height="301" viewBox="0 0 301 301" fill="none" xmlns="http://www.w3.org/2000/svg">
<path d="M300.854 150.036C300.854 171.078 300.43 192.182 300.974 213.224C301.882 250.472 278.48 279.254 248.67 292.072C236.822 297.229 224.042 299.905 211.12 299.932C170.426 299.992 129.672 300.532 88.9783 299.75C58.3223 299.15 33.1063 286.326 15.0283 261.052C5.70979 247.989 0.79612 232.297 1.00025 216.252V86.2519C1.00025 50.8619 18.2323 26.1399 48.8302 10.0619C62.0827 3.3207 76.7729 -0.104601 91.6403 0.0799404C131.124 0.0799404 170.67 -0.162061 210.154 0.199939C240.81 0.441939 266.388 12.1719 285.254 36.8419C295.588 50.3271 301.083 66.8979 300.854 83.8859V150.036ZM23.3123 150.036V216.55C23.1566 226.276 25.7337 235.85 30.7503 244.184C44.2343 266.262 64.6103 277.016 89.8863 277.44C130.46 278.04 171.086 277.682 211.726 277.56C221.635 277.619 231.431 275.45 240.388 271.212C264.938 259.482 278.664 240.798 278.542 212.74C278.3 169.808 278.482 126.878 278.482 83.9399C278.634 72.0489 274.897 60.4336 267.84 50.8619C253.932 32.0619 234.704 22.8059 211.726 22.5639C171.214 22.0799 130.7 22.3819 90.1883 22.4439C81.6045 22.5142 73.1037 24.1321 65.0943 27.2199C42.8423 35.5139 22.1643 56.4959 23.1303 87.3939C23.8563 108.314 23.3123 129.176 23.3123 150.036Z" fill="black"/>
<path d="M151.26 214.13C142.045 214.191 132.909 212.433 124.375 208.957C115.841 205.481 108.076 200.355 101.527 193.873C94.9771 187.391 89.771 179.68 86.2068 171.182C82.6425 162.684 80.7902 153.567 80.7559 144.352C80.6959 106.258 112.38 75.058 151.138 75.058C160.34 74.94 169.473 76.6494 178.009 80.0872C186.545 83.5251 194.314 88.6229 200.866 95.0853C207.417 101.548 212.621 109.246 216.175 117.734C219.729 126.223 221.564 135.332 221.572 144.534C221.58 153.737 219.761 162.849 216.221 171.343C212.682 179.838 207.491 187.545 200.951 194.019C194.411 200.493 186.651 205.604 178.12 209.056C169.59 212.509 160.46 214.234 151.258 214.132L151.26 214.13ZM151.26 191.758C157.521 191.858 163.739 190.711 169.552 188.384C175.366 186.057 180.658 182.597 185.121 178.204C189.584 173.812 193.128 168.576 195.547 162.8C197.967 157.025 199.213 150.826 199.213 144.564C199.213 138.302 197.967 132.103 195.547 126.328C193.128 120.552 189.584 115.316 185.121 110.924C180.658 106.531 175.366 103.071 169.552 100.744C163.739 98.4171 157.521 97.2701 151.26 97.37C124.716 97.37 103.06 118.472 103.06 144.534C103.195 157.186 108.347 169.268 117.385 178.123C126.423 186.978 138.607 191.882 151.26 191.758Z" fill="black"/>
<path d="M229.805 53.8959C232.879 53.7601 235.923 54.546 238.548 56.1528C241.172 57.7596 243.256 60.1139 244.532 62.9136C245.808 65.7133 246.219 68.8306 245.711 71.8652C245.203 74.8999 243.8 77.7136 241.681 79.945C239.563 82.1764 236.825 83.7237 233.821 84.3884C230.817 85.0531 227.683 84.8047 224.82 83.6752C221.958 82.5458 219.499 80.5867 217.758 78.0495C216.018 75.5123 215.075 72.5127 215.051 69.4359C214.955 65.421 216.454 61.5318 219.219 58.6193C221.984 55.7069 225.791 54.0085 229.805 53.8959Z" fill="black"/>
</svg>
