<svg width="30" height="28" viewBox="0 0 30 28" fill="none" xmlns="http://www.w3.org/2000/svg">
<path d="M29.986 13.7575C29.986 15.6869 29.9436 17.622 29.998 19.5515C30.0888 22.9669 27.7486 25.6061 24.7676 26.7814C23.5828 27.2544 22.3048 27.4996 21.0126 27.5022C16.9432 27.5077 12.8678 27.5572 8.79841 27.4855C5.73281 27.4305 3.21121 26.2546 1.40341 23.9371C0.471565 22.7393 -0.0198021 21.3003 0.000611234 19.8291V7.90879C0.000611234 4.66371 1.72381 2.39683 4.78361 0.922561C6.10886 0.304424 7.57787 -0.00965851 9.06461 0.00726297C13.013 0.00726297 16.9676 -0.0149273 20.916 0.0182663C23.9816 0.0404564 26.5394 1.11604 28.426 3.37815C29.4594 4.61467 30.0089 6.13413 29.986 7.69184V13.7575ZM2.23181 13.7575V19.8565C2.21625 20.7483 2.47395 21.6262 2.97561 22.3904C4.32401 24.4148 6.36161 25.4009 8.88921 25.4398C12.9466 25.4948 17.0092 25.4619 21.0732 25.4508C22.0641 25.4562 23.0437 25.2573 23.9394 24.8687C26.3944 23.7931 27.767 22.0799 27.7548 19.5071C27.7306 15.5705 27.7488 11.634 27.7488 7.6968C27.764 6.60644 27.3903 5.54139 26.6846 4.66371C25.2938 2.93985 23.371 2.09112 21.0732 2.06893C17.022 2.02455 12.9706 2.05224 8.91941 2.05793C8.06103 2.06437 7.21096 2.21272 6.41001 2.49586C4.18481 3.25638 2.11701 5.18032 2.21361 8.01351C2.28621 9.93177 2.23181 11.8447 2.23181 13.7575Z" fill="#87888A"/>
<path d="M15.0279 19.6347C14.1065 19.6403 13.1928 19.4791 12.3394 19.1604C11.486 18.8416 10.7096 18.3716 10.0546 17.7772C9.39966 17.1828 8.87905 16.4757 8.52263 15.6965C8.16621 14.9173 7.98097 14.0813 7.97755 13.2363C7.97155 9.74327 11.1399 6.88236 15.0157 6.88236C15.9359 6.87154 16.8493 7.02829 17.7029 7.34352C18.5565 7.65876 19.3334 8.12621 19.9885 8.71878C20.6437 9.31135 21.164 10.0173 21.5195 10.7956C21.8749 11.5739 22.0583 12.4092 22.0591 13.253C22.0599 14.0969 21.8781 14.9324 21.5241 15.7113C21.1701 16.4902 20.6511 17.197 19.997 17.7906C19.343 18.3842 18.567 18.8529 17.714 19.1694C16.861 19.486 15.9479 19.6442 15.0277 19.6349L15.0279 19.6347ZM15.0279 17.5833C15.654 17.5924 16.2759 17.4872 16.8572 17.2739C17.4385 17.0605 17.9677 16.7432 18.414 16.3405C18.8603 15.9377 19.2147 15.4576 19.4567 14.928C19.6986 14.3984 19.8232 13.8299 19.8232 13.2558C19.8232 12.6816 19.6986 12.1132 19.4567 11.5836C19.2147 11.054 18.8603 10.5738 18.414 10.1711C17.9677 9.76833 17.4385 9.45103 16.8572 9.23766C16.2759 9.02429 15.654 8.91912 15.0279 8.92828C12.3735 8.92828 10.2079 10.8632 10.2079 13.253C10.2214 14.4132 10.7367 15.521 11.6405 16.333C12.5443 17.1449 13.7627 17.5947 15.0279 17.5833Z" fill="#87888A"/>
<path d="M22.8823 4.9423C23.1897 4.92984 23.4942 5.00191 23.7566 5.14926C24.019 5.29661 24.2274 5.51251 24.355 5.76925C24.4826 6.02599 24.5237 6.31185 24.4729 6.59014C24.4221 6.86843 24.2818 7.12645 24.0699 7.33108C23.8581 7.5357 23.5843 7.6776 23.2839 7.73855C22.9835 7.7995 22.6701 7.77673 22.3838 7.67315C22.0976 7.56957 21.8517 7.38992 21.6776 7.15725C21.5036 6.92458 21.4093 6.64952 21.4069 6.36736C21.3974 5.99919 21.5472 5.64253 21.8237 5.37545C22.1002 5.10837 22.4809 4.95262 22.8823 4.9423Z" fill="#87888A"/>
</svg>
