<svg width="517" height="116" viewBox="0 0 517 116" fill="none" xmlns="http://www.w3.org/2000/svg">
<path d="M51.7507 16.9868L51.373 9.43709C48.7288 7.92715 46.0846 6.41722 43.4404 5.66225C40.7962 4.90728 37.7742 4.5298 34.7523 4.5298C27.1975 4.5298 20.7758 6.7947 16.2429 11.3245C11.71 15.8543 9.44356 22.2715 9.44356 30.1987C9.44356 35.8609 10.5768 40.3907 12.8432 44.9205C15.1097 49.0728 18.5094 52.4702 22.6645 55.1126C26.8197 57.755 31.3526 58.8874 36.2633 58.8874C40.0407 58.8874 43.8181 58.5099 47.5956 57.3775C50.2397 56.6225 53.2617 55.4901 55.9059 53.2252L56.6614 53.9801C55.9059 55.1126 55.5281 56.6225 55.1504 57.755C51.7507 59.2649 48.351 60.7748 44.9514 61.5298C41.5517 62.2848 38.152 62.6623 34.7523 62.6623C27.9529 62.6623 21.5313 61.1523 16.2429 58.5099C10.9545 55.8675 6.79936 52.0927 4.15517 47.1854C1.13323 42.2781 0 36.9934 0 30.9536C0 24.9139 1.51097 19.6291 4.15517 14.7219C7.17711 9.81457 10.9545 6.41722 16.2429 3.77483C21.5313 1.13245 27.9529 0 35.5078 0C39.663 0 44.1959 0.754967 49.4843 1.88742C52.1285 2.64238 54.3949 3.01987 55.9059 3.39735C54.7727 6.41722 54.0172 10.5695 53.6394 16.2318H50.6175L51.7507 16.9868ZM106.901 41.5232H82.3479L79.3259 48.3179C77.4372 52.8477 76.304 55.4901 76.304 56.6225C76.304 57.3775 76.304 57.755 76.6817 58.1325C77.0595 58.5099 77.8149 58.5099 79.3259 58.8874L83.4811 59.2649V61.9073C80.8369 61.9073 77.8149 61.5298 74.4153 61.5298C70.2601 61.5298 66.8604 61.5298 63.4607 61.9073V59.2649H64.594C66.4827 59.2649 67.9936 58.8874 68.3714 58.5099C69.1269 58.1325 69.5046 57.3775 70.2601 55.8675C72.1488 51.7152 74.4153 47.1854 76.304 42.6556L88.014 16.2318C91.0359 9.0596 93.3024 4.15232 94.4356 0.754967H97.4576L118.989 50.9603C120.5 54.3576 121.255 56.245 122.011 57C122.389 57.755 123.144 58.1325 123.522 58.5099C124.277 58.8874 125.41 58.8874 127.677 59.2649V61.9073C123.9 61.9073 120.5 61.5298 117.1 61.5298C114.078 61.5298 109.923 61.5298 104.635 61.9073V59.2649L108.79 58.8874C110.301 58.8874 111.056 58.5099 111.434 58.5099C111.812 58.1325 112.19 57.755 112.19 57.3775C112.19 57 111.812 55.4901 111.056 53.2252L106.523 41.5232H106.901ZM83.8588 38.1258H105.39L94.8134 12.457L84.2366 38.1258H83.8588ZM166.962 31.3311C169.606 35.4834 173.384 40.0132 177.161 45.298L185.472 55.8675C186.983 57.755 187.738 58.8874 188.493 58.8874C188.871 59.2649 189.627 59.2649 190.004 59.2649H191.138V61.9073C188.871 61.9073 186.605 61.5298 185.094 61.5298C183.583 61.5298 181.694 61.5298 179.805 61.9073L164.696 41.5232C162.052 37.7483 159.03 33.9735 155.63 30.5762L156.008 29.0662C157.519 29.0662 159.03 29.4437 159.785 29.4437C164.696 29.4437 168.095 28.3113 171.117 25.6689C173.762 23.404 175.273 20.0066 175.273 15.8543C175.273 12.0795 174.139 9.43709 171.873 7.17219C169.606 5.28477 166.207 4.15232 162.052 4.15232C159.03 4.15232 156.008 4.5298 152.986 5.66225C152.608 10.1921 152.608 15.0993 152.608 20.0066V40.3907C152.608 50.2053 152.986 55.8675 153.363 57C153.741 58.1325 155.252 58.5099 157.896 58.5099H161.296V61.1523C156.763 61.1523 152.608 60.7748 149.586 60.7748C147.32 60.7748 142.787 60.7748 136.365 61.1523V58.5099H139.387C141.653 58.5099 143.164 58.1325 143.542 57C143.92 55.8675 144.298 50.2053 144.298 40.3907V20.0066C144.298 11.3245 143.92 6.41722 143.542 5.28477C143.164 4.15232 141.276 3.77483 138.254 3.77483H135.987V1.13245C141.276 1.13245 145.431 1.50993 148.075 1.50993C149.964 1.50993 152.608 1.50993 156.008 1.13245C160.163 1.13245 163.185 0.754967 164.696 0.754967C169.606 0.754967 173.384 1.13245 176.028 2.2649C178.672 3.39735 180.561 4.90728 181.694 6.7947C183.205 8.68212 183.583 10.947 183.583 13.9669C183.583 18.1192 182.072 21.5166 179.428 24.5364C176.406 27.5563 172.251 29.8212 166.962 30.9536V31.3311ZM259.509 10.5695L246.666 36.9934C241.755 46.8079 237.978 55.4901 234.956 63.0397H233.067C231.934 60.3974 228.912 53.9801 224.001 43.7881L208.892 12.457V44.9205C208.892 52.4702 209.269 57 209.647 57.755C210.403 58.8874 212.291 59.2649 215.313 59.2649H216.824V61.9073C213.047 61.9073 209.647 61.5298 207.381 61.5298C205.492 61.5298 202.092 61.5298 196.804 61.9073V59.2649H199.448C201.337 59.2649 202.47 58.8874 203.225 58.5099C203.981 58.1325 204.359 57 204.359 55.4901C204.736 51.3377 204.736 47.1854 204.736 42.6556V18.4967C204.736 12.8344 204.736 8.68212 204.359 7.17219C204.359 6.03974 203.981 5.28477 203.225 4.90728C202.47 4.5298 200.959 4.15232 199.07 4.15232H196.804V1.50993C201.714 1.50993 204.736 1.88742 206.247 1.88742C207.758 1.88742 210.025 1.88742 213.047 1.50993C216.446 9.0596 220.602 17.7417 224.757 26.8013L236.089 49.8278L246.666 28.3113C250.443 20.7616 254.598 11.702 259.131 1.13245C262.531 1.13245 265.175 1.50993 266.686 1.50993C268.197 1.50993 271.219 1.50993 275.752 1.13245V3.77483H273.108C270.464 3.77483 268.953 4.15232 268.575 4.90728C268.197 5.66225 267.819 9.0596 267.819 14.3444V45.298C267.819 52.0927 268.197 56.245 268.575 57.3775C269.33 58.5099 270.841 58.8874 273.486 58.8874H275.752V61.5298C271.975 61.5298 268.197 61.1523 264.42 61.1523C260.265 61.1523 256.109 61.1523 251.954 61.5298V58.8874H254.598C256.865 58.8874 258.376 58.5099 258.754 57.3775C259.131 56.245 259.509 52.0927 259.509 44.9205V10.1921V10.5695ZM300.305 32.8411V43.4106V49.4503C300.305 53.2252 300.305 55.8675 300.305 57.755C304.46 58.1325 308.993 58.1325 313.526 58.1325C316.548 58.1325 319.57 58.1325 321.459 57.755C322.97 57.755 324.481 57.3775 325.992 56.6225C326.747 53.9801 327.503 50.9603 328.258 47.1854H330.902C330.147 53.6026 329.769 57.755 329.769 59.6424V61.5298C326.37 61.9073 323.348 61.9073 319.948 61.9073H313.148C305.594 61.9073 300.305 61.5298 296.906 61.5298C293.506 61.5298 288.973 61.5298 283.685 61.9073V59.2649H285.196C287.84 59.2649 289.351 58.8874 289.728 58.5099C290.484 58.1325 290.862 57 290.862 55.1126C291.239 53.2252 291.239 49.4503 291.239 43.4106V20.0066C291.239 16.2318 291.239 13.2119 290.862 10.5695C290.484 8.30464 290.484 6.7947 290.106 6.03974C289.728 5.66225 289.728 5.28477 289.351 4.90728C288.973 4.5298 287.84 4.5298 285.573 4.15232L282.174 3.77483V1.13245H286.707H291.239C293.884 1.13245 295.772 1.13245 296.906 1.13245L313.148 0.754967H321.081C323.725 0.754967 326.37 0.754967 329.014 1.13245C327.88 4.5298 327.125 9.0596 327.125 14.3444H324.481C324.481 11.3245 324.481 8.68212 324.103 6.41722C320.703 5.28477 316.548 4.5298 311.638 4.5298C307.86 4.5298 303.705 4.5298 299.55 4.90728C299.55 7.54967 299.55 10.1921 299.55 12.8344V19.2517V27.9338C302.572 27.9338 304.838 28.3113 307.105 28.3113C313.904 28.3113 317.681 27.9338 318.815 27.5563C319.57 27.1788 320.326 25.6689 320.326 23.0265V20.3841H322.97C322.592 24.5364 322.592 27.9338 322.592 30.5762C322.592 33.2185 322.592 36.6159 322.97 40.0132H320.326V37.3709C320.326 34.7285 319.948 32.8411 318.815 32.4636C317.681 31.7086 313.904 31.7086 307.482 31.7086C305.216 31.7086 302.572 31.7086 299.928 32.0861L300.305 32.8411ZM356.589 57.755C359.233 57.755 362.255 58.1325 364.899 58.1325C370.188 58.1325 374.343 58.1325 377.365 57.755C379.631 57.3775 381.52 57 383.786 56.6225L386.431 46.4305H389.075C388.319 51.7152 387.942 57 387.564 61.5298C384.92 61.9073 381.52 62.2848 376.987 62.2848L356.589 61.9073C353.945 61.9073 349.79 61.9073 343.746 62.2848V60.0199C346.012 58.8874 347.523 58.1325 347.901 57C348.279 55.8675 348.656 51.3377 348.656 43.4106V20.0066C348.656 11.3245 348.279 6.7947 347.901 5.66225C347.523 4.5298 346.39 4.15232 344.501 4.15232H339.968V1.50993C346.768 1.50993 351.301 1.88742 353.567 1.88742C356.589 1.88742 360.366 1.88742 365.655 1.50993V4.15232H360.366C358.855 4.15232 357.722 4.5298 357.344 5.28477C356.967 6.03974 356.589 9.81457 356.589 16.2318V43.4106V55.4901V58.1325V57.755ZM413.25 57.755C415.894 57.755 418.916 58.1325 421.561 58.1325C426.849 58.1325 431.004 58.1325 434.026 57.755C436.293 57.3775 438.181 57 440.448 56.6225L443.092 46.4305H445.736C444.981 51.7152 444.603 57 444.225 61.5298C441.581 61.9073 438.181 62.2848 433.648 62.2848L413.25 61.9073C410.606 61.9073 406.451 61.9073 400.407 62.2848V60.0199C402.673 58.8874 404.184 58.1325 404.562 57C404.94 55.8675 405.318 51.3377 405.318 43.4106V20.0066C405.318 11.3245 404.94 6.7947 404.562 5.66225C404.184 4.5298 403.051 4.15232 401.163 4.15232H396.63V1.50993C403.429 1.50993 407.962 1.88742 410.228 1.88742C413.25 1.88742 417.028 1.88742 422.316 1.50993V4.15232H417.028C415.517 4.15232 414.383 4.5298 414.006 5.28477C413.628 6.03974 413.25 9.81457 413.25 16.2318V43.4106V55.4901V58.1325V57.755ZM495.598 41.5232H471.045L468.023 48.3179C466.134 52.8477 465.001 55.4901 465.001 56.6225C465.001 57.3775 465.001 57.755 465.379 58.1325C465.756 58.5099 466.512 58.5099 468.023 58.8874L472.178 59.2649V61.9073C469.534 61.9073 466.512 61.5298 463.112 61.5298C458.957 61.5298 455.557 61.5298 452.158 61.9073V59.2649H453.291C455.18 59.2649 456.691 58.8874 457.068 58.5099C457.824 58.1325 458.202 57.3775 458.957 55.8675C460.846 51.7152 463.112 47.1854 465.001 42.6556L476.711 16.2318C479.733 9.0596 481.999 4.15232 483.133 0.754967H486.155L507.686 50.9603C509.197 54.3576 509.952 56.245 510.708 57C511.086 57.755 511.841 58.1325 512.219 58.5099C512.974 58.8874 514.107 58.8874 516.374 59.2649V61.9073C512.597 61.9073 509.197 61.5298 505.797 61.5298C502.775 61.5298 498.62 61.5298 493.332 61.9073V59.2649L497.487 58.8874C498.998 58.8874 499.753 58.5099 500.131 58.5099C500.509 58.1325 500.887 57.755 500.887 57.3775C500.887 57 500.509 55.4901 499.753 53.2252L495.22 41.5232H495.598ZM472.556 38.1258H494.087L483.51 12.457L472.934 38.1258H472.556Z" fill="#BA7D22"/>
<path d="M21.5307 91.7285C22.6639 90.596 24.1749 89.4636 25.6858 88.7086C27.1968 87.9537 29.0855 87.5762 30.5965 87.5762C32.1074 87.5762 33.6184 87.9537 35.1294 88.3311C36.6404 88.7086 37.7736 89.4636 38.9068 90.596L37.7736 91.7285C36.6404 90.9735 35.5071 90.2186 34.3739 89.8411C33.2407 89.4636 31.7297 89.0861 30.5965 89.0861C29.0855 89.0861 27.5745 89.4636 26.0636 89.8411C24.5526 90.596 23.4194 91.351 22.2861 92.4835C21.1529 93.6159 20.3974 94.7484 19.6419 96.2583C18.8865 97.7682 18.8865 99.2782 18.8865 100.788C18.8865 102.298 19.2642 103.808 19.6419 105.318C20.3974 106.828 21.1529 107.96 22.2861 109.093C23.4194 110.225 24.5526 110.98 26.0636 111.735C27.5745 112.49 29.0855 112.49 30.5965 112.49C32.1074 112.49 33.6184 112.113 34.7516 111.735C35.8849 111.358 37.0181 110.98 38.1513 110.225V106.073H31.7297V104.563H39.6623V111.358L39.2846 111.735C37.7736 112.49 36.6404 113.245 35.1294 113.623C34.3739 114 33.6184 114 32.8629 114.377C32.1074 114.377 31.352 114.377 30.5965 114.377C28.7078 114.377 27.1968 114 25.6858 113.245C24.1749 112.49 22.6639 111.735 21.5307 110.225C20.3974 109.093 19.2642 107.583 18.5087 106.073C17.7532 104.563 17.3755 102.676 17.3755 101.166C17.3755 99.2782 17.7532 97.7682 18.5087 96.2583C19.2642 94.7484 20.0197 93.2384 21.5307 92.106V91.7285ZM50.9946 89.8411V104.563H60.8159V106.45H50.9946V112.49H61.5714V114H49.4836V88.3311H61.5714V89.8411H50.9946ZM72.5259 88.3311V112.49H85.3691V114H70.6372V88.3311H72.1482H72.5259ZM112.567 114C112.189 113.245 112.189 112.49 111.811 111.735C111.433 110.98 111.056 110.225 110.678 109.47C110.3 108.715 109.922 107.583 109.545 106.45H98.5901C98.2124 107.583 97.8346 108.715 97.4569 109.47C97.0792 110.225 96.7014 111.358 96.7014 111.735C96.3237 112.49 95.9459 113.245 95.9459 114H94.0572L104.256 87.5762L114.455 114H112.567ZM108.789 104.563C108.411 103.43 107.656 101.921 107.278 100.788C106.9 99.6556 106.145 98.1457 105.767 97.0133C105.389 95.8808 105.012 94.7484 104.634 93.9934C104.256 93.2384 103.879 92.4835 103.879 92.106C103.879 92.4835 103.501 93.2384 103.123 93.9934C102.745 94.7484 102.368 95.8808 101.99 97.0133C101.612 98.1457 101.234 99.2782 100.479 100.788C100.101 101.921 99.3456 103.43 98.9679 104.563H108.411H108.789ZM135.231 88.3311V89.8411H127.676V113.623H126.165V89.8411H118.61V88.3311H135.609H135.231ZM146.186 89.8411V104.563H156.007V106.45H146.186V112.49H156.762V114H144.675V88.3311H156.762V89.8411H146.186ZM178.672 103.808C178.294 104.185 177.538 104.563 176.783 104.94C176.027 105.318 175.65 105.695 174.894 105.695L182.071 114H179.805L173.005 106.073H172.628H172.25H168.095V113.623H166.584V87.9537H172.25C173.383 87.9537 174.516 88.3311 175.65 88.7086C176.783 89.0861 177.916 89.8411 178.672 90.596C179.805 91.351 180.56 92.4835 180.938 93.6159C181.316 94.7484 181.693 95.8808 181.693 97.3907C181.693 98.5232 181.316 100.033 180.938 101.166C180.56 102.298 179.805 103.43 178.672 104.185V103.808ZM171.872 104.563C173.005 104.563 173.761 104.563 174.894 104.185C176.027 103.808 176.783 103.43 177.538 102.676C178.294 101.921 179.049 101.166 179.427 100.411C179.805 99.6556 180.183 98.5232 180.183 97.3907C180.183 96.2583 179.805 95.1258 179.427 94.3709C179.049 93.6159 178.294 92.8609 177.538 92.106C176.783 91.351 176.027 90.9735 174.894 90.596C173.761 90.2186 173.005 90.2186 171.872 90.2186H167.717V104.563H171.872ZM191.137 88.3311H192.648V114H191.137V88.3311ZM220.601 114C220.223 113.245 220.223 112.49 219.845 111.735C219.468 110.98 219.09 110.225 218.712 109.47C218.335 108.715 217.957 107.583 217.579 106.45H206.624C206.247 107.583 205.869 108.715 205.491 109.47C205.114 110.225 204.736 111.358 204.736 111.735C204.358 112.49 203.98 113.245 203.98 114H202.092L212.291 87.5762L222.49 114H220.601ZM216.824 104.563C216.446 103.43 215.69 101.921 215.313 100.788C214.935 99.6556 214.179 98.1457 213.802 97.0133C213.424 95.8808 213.046 94.7484 212.668 93.9934C212.291 93.2384 211.913 92.4835 211.913 92.106C211.913 92.4835 211.535 93.2384 211.157 93.9934C210.78 94.7484 210.402 95.8808 210.024 97.0133C209.646 98.1457 209.269 99.2782 208.513 100.788C208.135 101.921 207.38 103.43 207.002 104.563H216.446H216.824ZM258.753 114C258.375 113.245 258.375 112.49 257.997 111.735C257.62 110.98 257.242 110.225 256.864 109.47C256.486 108.715 256.109 107.583 255.731 106.45H244.776C244.399 107.583 244.021 108.715 243.643 109.47C243.266 110.225 242.888 111.358 242.888 111.735C242.51 112.49 242.132 113.245 242.132 114H240.244L250.443 87.5762L260.642 114H258.753ZM254.976 104.563C254.598 103.43 253.842 101.921 253.465 100.788C253.087 99.6556 252.331 98.1457 251.954 97.0133C251.576 95.8808 251.198 94.7484 250.82 93.9934C250.443 93.2384 250.065 92.4835 250.065 92.106C250.065 92.4835 249.687 93.2384 249.309 93.9934C248.932 94.7484 248.554 95.8808 248.176 97.0133C247.798 98.1457 247.421 99.2782 246.665 100.788C246.287 101.921 245.532 103.43 245.154 104.563H254.598H254.976ZM282.173 103.808C281.795 104.185 281.04 104.563 280.284 104.94C279.529 105.318 279.151 105.695 278.396 105.695L285.573 114H283.306L276.507 106.073H276.129H275.751H271.596V113.623H270.085V87.9537H275.751C276.885 87.9537 278.018 88.3311 279.151 88.7086C280.284 89.0861 281.417 89.8411 282.173 90.596C283.306 91.351 284.062 92.4835 284.439 93.6159C284.817 94.7484 285.195 95.8808 285.195 97.3907C285.195 98.5232 284.817 100.033 284.439 101.166C284.062 102.298 283.306 103.43 282.173 104.185V103.808ZM275.374 104.563C276.507 104.563 277.262 104.563 278.396 104.185C279.529 103.808 280.284 103.43 281.04 102.676C281.795 101.921 282.551 101.166 282.928 100.411C283.306 99.6556 283.684 98.5232 283.684 97.3907C283.684 96.2583 283.306 95.1258 282.928 94.3709C282.551 93.6159 281.795 92.8609 281.04 92.106C280.284 91.351 279.529 90.9735 278.396 90.596C277.262 90.2186 276.507 90.2186 275.374 90.2186H271.218V104.563H275.374ZM308.237 88.3311V89.8411H300.682V113.623H299.171V89.8411H291.617V88.3311H308.615H308.237ZM317.681 88.3311H319.192V114H317.681V88.3311ZM332.413 91.7285C333.546 90.596 335.057 89.4636 336.568 88.7086C338.079 87.9537 339.968 87.5762 341.479 87.5762C342.99 87.5762 344.5 87.9537 346.011 88.3311C347.522 88.7086 348.656 89.4636 349.789 90.596L348.656 91.7285C347.522 90.9735 346.389 90.2186 345.256 89.8411C344.123 89.4636 342.612 89.0861 341.479 89.0861C339.968 89.0861 338.457 89.4636 336.946 89.8411C335.435 90.596 334.301 91.351 333.168 92.4835C332.035 93.6159 331.28 94.7484 330.524 96.2583C329.769 97.7682 329.769 99.2782 329.769 100.788C329.769 102.298 330.146 103.808 330.524 105.318C331.28 106.828 332.035 107.96 333.168 109.093C334.301 110.225 335.435 110.98 336.946 111.735C338.457 112.49 339.968 112.49 341.479 112.49C342.99 112.49 344.5 112.113 345.634 111.735C346.767 111.358 347.9 110.98 349.033 110.225V106.073H342.612V104.563H350.544V111.358L350.167 111.735C348.656 112.49 347.522 113.245 346.011 113.623C345.256 114 344.5 114 343.745 114.377C342.99 114.377 342.234 114.377 341.479 114.377C339.59 114.377 338.079 114 336.568 113.245C335.057 112.49 333.546 111.735 332.413 110.225C331.28 109.093 330.146 107.583 329.391 106.073C328.635 104.563 328.258 102.676 328.258 101.166C328.258 99.2782 328.635 97.7682 329.391 96.2583C330.146 94.7484 330.902 93.2384 332.413 92.106V91.7285ZM360.366 88.3311H361.877V114H360.366V88.3311ZM389.83 114C389.452 113.245 389.452 112.49 389.074 111.735C388.696 110.98 388.319 110.225 387.941 109.47C387.563 108.715 387.185 107.583 386.808 106.45H375.853C375.475 107.583 375.098 108.715 374.72 109.47C374.342 110.225 373.964 111.358 373.964 111.735C373.587 112.49 373.209 113.245 373.209 114H371.32L381.519 87.5762L391.718 114H389.83ZM386.052 104.563C385.674 103.43 384.919 101.921 384.541 100.788C384.163 99.6556 383.408 98.1457 383.03 97.0133C382.652 95.8808 382.275 94.7484 381.897 93.9934C381.519 93.2384 381.142 92.4835 381.142 92.106C381.142 92.4835 380.764 93.2384 380.386 93.9934C380.008 94.7484 379.631 95.8808 379.253 97.0133C378.875 98.1457 378.497 99.2782 377.742 100.788C377.364 101.921 376.609 103.43 376.231 104.563H385.674H386.052ZM400.784 87.5762C404.184 91.351 407.206 94.7484 409.85 97.7682C410.983 99.2782 412.116 100.411 413.25 101.921C414.383 103.43 415.516 104.563 416.649 105.695C417.783 106.828 418.538 107.96 419.294 108.715C420.049 109.47 420.427 110.225 420.804 110.603V88.7086H422.693V115.132C419.294 111.358 416.272 107.96 413.627 104.94C412.494 103.808 411.361 102.298 410.228 100.788C409.094 99.2782 407.961 98.1457 406.828 97.0133C405.695 95.8808 404.939 94.7484 404.184 93.9934C403.428 93.2384 403.051 92.4835 402.673 92.106V114H401.162V87.5762H400.784ZM450.268 114C449.891 113.245 449.891 112.49 449.513 111.735C449.135 110.98 448.757 110.225 448.38 109.47C448.002 108.715 447.624 107.583 447.246 106.45H436.292C435.914 107.583 435.536 108.715 435.159 109.47C434.781 110.225 434.403 111.358 434.403 111.735C434.025 112.49 433.648 113.245 433.648 114H431.759L441.958 87.5762L452.157 114H450.268ZM446.491 104.563C446.113 103.43 445.358 101.921 444.98 100.788C444.602 99.6556 443.847 98.1457 443.469 97.0133C443.091 95.8808 442.714 94.7484 442.336 93.9934C441.958 93.2384 441.58 92.4835 441.58 92.106C441.58 92.4835 441.203 93.2384 440.825 93.9934C440.447 94.7484 440.069 95.8808 439.692 97.0133C439.314 98.1457 438.936 99.2782 438.181 100.788C437.803 101.921 437.047 103.43 436.67 104.563H446.113H446.491ZM463.112 88.3311V112.49H475.955V114H461.223V88.3311H462.734H463.112ZM487.287 89.8411V104.563H497.108V106.45H487.287V112.49H497.864V114H485.776V88.3311H497.864V89.8411H487.287Z" fill="#A1754F"/>
</svg>
