<svg width="30" height="44" viewBox="0 0 30 44" fill="none" xmlns="http://www.w3.org/2000/svg">
<g clip-path="url(#clip0_303:41)">
<path d="M15 0C11.0231 0.00454785 7.21048 1.58636 4.39842 4.39842C1.58636 7.21048 0.00454785 11.0231 0 15C0 25.3958 15.0148 43.1539 15.0148 43.1539C15.0148 43.1539 30 24.8854 30 15C29.9955 11.0231 28.4137 7.21041 25.6017 4.39833C22.7896 1.58626 18.9769 0.00446822 15 0V0ZM19.5258 19.392C18.6307 20.2872 17.4902 20.8968 16.2486 21.1438C15.007 21.3909 13.72 21.2642 12.5504 20.7797C11.3808 20.2953 10.3812 19.4749 9.67783 18.4223C8.9745 17.3698 8.5991 16.1322 8.5991 14.8663C8.5991 13.6004 8.9745 12.3628 9.67783 11.3103C10.3812 10.2577 11.3808 9.4373 12.5504 8.95287C13.72 8.46845 15.007 8.34174 16.2486 8.58876C17.4902 8.83578 18.6307 9.44544 19.5258 10.3406C20.1224 10.9337 20.5958 11.6388 20.9189 12.4155C21.242 13.1922 21.4083 14.0251 21.4083 14.8663C21.4083 15.7075 21.242 16.5404 20.9189 17.3171C20.5958 18.0938 20.1224 18.7989 19.5258 19.392Z" fill="#87888A"/>
</g>
<defs>
<clipPath id="clip0_303:41">
<rect width="30" height="43.1539" fill="white"/>
</clipPath>
</defs>
</svg>
