<svg width="196" height="282" viewBox="0 0 196 282" fill="none" xmlns="http://www.w3.org/2000/svg">
<path d="M97.7612 0C43.856 0 0 43.856 0 97.7611C0 165.514 97.8573 281.25 97.8573 281.25C97.8573 281.25 195.522 162.182 195.522 97.7611C195.522 43.856 151.668 0 97.7612 0ZM127.258 126.386C119.124 134.517 108.444 138.584 97.7612 138.584C87.0804 138.584 76.3962 134.517 68.2663 126.386C52.0014 110.122 52.0014 83.6592 68.2663 67.3942C76.1421 59.515 86.6186 55.1754 97.7612 55.1754C108.904 55.1754 119.378 59.5167 127.258 67.3942C143.523 83.6592 143.523 110.122 127.258 126.386Z" fill="white"/>
</svg>
