<svg width="300" height="300" viewBox="0 0 300 300" fill="none" xmlns="http://www.w3.org/2000/svg">
<path d="M255.423 43.5654C227.241 15.4884 189.75 0.0160218 149.849 0C110.037 0 72.4869 15.4587 44.1193 43.5287C15.7013 71.6469 0.0366211 109.014 0 148.611V148.656V148.684C0.00457764 172.65 6.30112 196.827 18.2533 218.896L0.409699 300L82.4478 281.339C103.226 291.811 126.409 297.331 149.792 297.34H149.851C189.656 297.34 227.206 281.879 255.579 253.807C284.022 225.666 299.693 188.347 299.712 148.725C299.723 109.383 283.997 72.036 255.423 43.5654ZM149.849 273.926H149.796C128.801 273.917 107.998 268.645 89.6393 258.678L85.7597 256.572L31.208 268.98L43.0573 215.128L40.773 211.189C29.4159 191.604 23.4146 169.984 23.4146 148.659C23.4581 79.6349 80.1704 23.4146 149.844 23.4146C183.504 23.4283 215.131 36.4769 238.898 60.1524C263.024 84.1942 276.306 115.647 276.295 148.718C276.267 217.758 219.543 273.926 149.849 273.926Z" fill="black"/>
<path d="M109.073 83.123H102.504C100.218 83.123 96.5054 83.9791 93.3652 87.3963C90.2226 90.8158 81.3672 99.0807 81.3672 115.89C81.3672 132.699 93.6513 148.94 95.3633 151.222C97.0776 153.502 119.075 189.098 153.916 202.792C182.872 214.172 188.765 211.908 195.048 211.338C201.333 210.77 215.329 203.075 218.186 195.099C221.042 187.122 221.042 180.283 220.186 178.855C219.328 177.432 217.041 176.578 213.615 174.87C210.186 173.161 193.387 164.756 190.244 163.614C187.101 162.476 184.817 161.906 182.531 165.328C180.244 168.743 173.513 176.644 171.512 178.924C169.514 181.206 167.514 181.492 164.085 179.782C160.656 178.068 149.73 174.397 136.635 162.76C126.443 153.703 119.371 142.154 117.37 138.734C115.372 135.317 117.157 133.468 118.876 131.763C120.417 130.234 122.497 128.142 124.212 126.148C125.924 124.152 126.411 122.729 127.556 120.449C128.698 118.169 128.125 116.174 127.269 114.466C126.411 112.756 119.833 95.8626 116.784 89.106H116.787C114.219 83.416 111.516 83.2238 109.073 83.123Z" fill="black"/>
</svg>
