<svg width="10" height="19" viewBox="0 0 10 19" fill="none" xmlns="http://www.w3.org/2000/svg">
<path d="M9.7774 18.6119C9.92011 18.467 10 18.2725 10 18.0699C10 17.8674 9.92011 17.6729 9.7774 17.528L1.80457 9.41683L9.7774 1.30728C9.92011 1.16239 10 0.967886 10 0.765347C10 0.562807 9.92011 0.368303 9.7774 0.223412C9.70804 0.15276 9.6251 0.0966053 9.53349 0.0582618C9.44188 0.0199184 9.34346 0.000163975 9.24403 0.000163966C9.14459 0.000163957 9.04617 0.0199184 8.95456 0.0582618C8.86295 0.0966052 8.78001 0.152759 8.71065 0.223411L0.232251 8.85056C0.0833415 9.00206 8.41727e-07 9.20526 8.23231e-07 9.41683C8.04735e-07 9.6284 0.0833414 9.8316 0.232251 9.9831L8.71065 18.6102C8.78001 18.6809 8.86295 18.7371 8.95456 18.7754C9.04616 18.8137 9.14459 18.8335 9.24402 18.8335C9.34346 18.8335 9.44188 18.8137 9.53349 18.7754C9.6251 18.7371 9.70803 18.6809 9.7774 18.6102L9.7774 18.6119Z" fill="black"/>
</svg>
