<svg width="61" height="61" viewBox="0 0 61 61" fill="none" xmlns="http://www.w3.org/2000/svg">
<rect x="0.307617" y="0.558701" width="60" height="60" rx="30" fill="#F9F2E4"/>
<path fill-rule="evenodd" clip-rule="evenodd" d="M15.5833 11.5171C18.8589 12.0312 22.2853 13.5762 24.8693 15.6572C26.5822 15.1206 28.4188 14.8304 30.3258 14.8304C32.2456 14.8304 34.0941 15.1245 35.8168 15.668C38.4625 13.622 41.7303 12.0194 45.0515 11.5195C45.7585 11.4154 46.4938 11.7727 46.8166 12.4184C48.1123 15.4798 48.1563 19.1303 47.3595 22.318L47.3471 22.3674C47.1336 23.2228 46.8576 24.3283 45.9718 24.7002C46.6303 26.3191 46.9925 28.0748 46.9925 29.9182C46.9925 34.5388 45.0955 39.2928 43.3945 43.5552L43.2223 43.9865C42.1895 46.5782 39.8785 48.3632 37.2008 48.8605L33.4173 49.5633C32.2506 49.78 31.0861 49.3592 30.3258 48.5108C29.5655 49.3592 28.4011 49.78 27.2345 49.5633L23.4509 48.8605C20.7733 48.3632 18.4623 46.5782 17.4294 43.9865L17.2573 43.5552C15.5564 39.2928 13.6592 34.5388 13.6592 29.9182C13.6592 28.0748 14.0214 26.3191 14.68 24.7002C13.7932 24.3279 13.5244 23.2492 13.3106 22.3915L13.2923 22.318C12.531 19.2726 12.3847 15.3252 13.8352 12.4184C14.1563 11.7762 14.8742 11.4069 15.5833 11.5171ZM21.3004 17.2314C19.4177 18.3316 17.7837 19.7725 16.5154 21.466C16.0187 19.4382 16.0131 17.183 16.4507 15.1431C18.1398 15.631 19.7928 16.3228 21.3004 17.2314ZM44.1363 21.466C42.8763 19.7836 41.2553 18.3504 39.3881 17.2529C40.8865 16.3313 42.4996 15.593 44.1963 15.1214C44.6398 17.1671 44.6346 19.4316 44.1363 21.466ZM25.0819 19.1087C26.6871 18.5019 28.4586 18.1637 30.3258 18.1637C32.1931 18.1637 33.9646 18.5019 35.5698 19.1087C40.4181 20.9415 43.6591 25.1608 43.6591 29.9182C43.6591 33.9432 41.9743 38.1432 40.4696 41.8938C40.3538 42.1827 40.2388 42.4692 40.126 42.7523C39.541 44.2202 38.2108 45.2825 36.592 45.5832L32.8085 46.286L31.8458 44.1465C31.5766 43.5483 30.9816 43.1637 30.3258 43.1637C29.67 43.1637 29.0751 43.5483 28.806 44.1465L27.8431 46.286L24.0597 45.5832C22.4409 45.2825 21.1108 44.2202 20.5258 42.7523C20.4131 42.4695 20.2984 42.1837 20.1827 41.8952C18.6781 38.1445 16.9925 33.9432 16.9925 29.9182C16.9925 25.1608 20.2337 20.9415 25.0819 19.1087ZM27.8258 36.497C27.1945 36.497 26.6174 36.8537 26.3351 37.4183C26.0528 37.983 26.1137 38.6587 26.4925 39.1637L28.9925 42.497C29.3073 42.9167 29.8011 43.1637 30.3258 43.1637C30.8505 43.1637 31.3443 42.9167 31.6591 42.497L34.1591 39.1637C34.538 38.6587 34.5988 37.983 34.3165 37.4183C34.0341 36.8537 33.4571 36.497 32.8258 36.497H27.8258ZM26.3614 28.3658C26.3614 29.7467 25.2421 30.8658 23.8614 30.8658C22.4807 30.8658 21.3614 29.7467 21.3614 28.3658C21.3614 26.9852 22.4807 25.8659 23.8614 25.8659C25.2421 25.8659 26.3614 26.9852 26.3614 28.3658ZM36.9925 30.6637C38.3731 30.6637 39.4925 29.5445 39.4925 28.1637C39.4925 26.783 38.3731 25.6637 36.9925 25.6637C35.6118 25.6637 34.4925 26.783 34.4925 28.1637C34.4925 29.5445 35.6118 30.6637 36.9925 30.6637Z" fill="#A17550"/>
</svg>
