<svg width="26" height="26" viewBox="0 0 26 26" fill="none" xmlns="http://www.w3.org/2000/svg">
<path d="M26 13.0785C25.9997 10.5789 25.2875 8.13169 23.9478 6.02666C22.6082 3.92162 20.6971 2.24688 18.4409 1.20072C16.1846 0.15456 13.6777 -0.21922 11.2169 0.123635C8.75608 0.466489 6.44443 1.51162 4.55562 3.13529C2.66681 4.75897 1.27992 6.89319 0.559159 9.2853C-0.161603 11.6774 -0.186062 14.2272 0.48868 16.6329C1.16342 19.0386 2.50911 21.1993 4.36642 22.8594C6.22374 24.5194 8.51491 25.6093 10.9687 25.9998V16.8596H7.66751V13.0782H10.9687V10.1968C10.9687 6.91849 12.9096 5.10833 15.8795 5.10833C16.8544 5.12199 17.827 5.20738 18.7896 5.36384V8.58318H17.1491C15.5343 8.58318 15.0305 9.5914 15.0305 10.6258V13.0787H18.6364L18.0608 16.8601H15.0313V26C18.0891 25.5126 20.8737 23.9435 22.8844 21.5749C24.895 19.2062 25.9998 16.1935 26 13.0785Z" fill="#A17550"/>
</svg>
