<svg width="61" height="61" viewBox="0 0 61 61" fill="none" xmlns="http://www.w3.org/2000/svg">
<rect x="0.496094" y="0.558701" width="60" height="60" rx="30" fill="#F9F2E4"/>
<path d="M36.5014 23.1687C38.3114 18.6437 34.2652 17.8975 34.2652 17.9512C35.5427 14.7562 32.9877 12.6262 30.6452 12.6262C28.3027 12.6262 28.4089 13.6925 28.4089 13.6925C28.4089 13.6925 29.6864 13.4262 29.6864 14.4375C29.6864 15.45 28.5139 15.3962 27.3439 16.5675C26.1714 17.7387 26.7314 17.58 26.6514 17.58C29.0864 17.42 30.5114 19.9362 33.2002 19.0162C30.5377 20.3475 29.8989 18.2312 27.0239 18.125C26.6514 18.125 24.5214 17.7125 24.5214 21.785C27.6364 22.145 28.9939 24.2875 33.2002 23.8087C28.4614 25.565 22.5252 18.2975 21.7002 26.2575C21.7002 27.9612 22.9764 28.8175 22.9764 28.8175C22.9764 28.8175 37.7252 28.8175 37.6727 28.8175C40.6002 27.54 39.1639 22.9025 36.5014 23.1687ZM30.5864 48.4912L37.2464 29.655H23.7802L30.5864 48.4912Z" fill="#A17550"/>
</svg>
