<svg width="60" height="60" viewBox="0 0 60 60" fill="none" xmlns="http://www.w3.org/2000/svg">
<circle cx="30" cy="30" r="30" fill="#F9F2E4"/>
<path d="M29.5 17C27.0277 17 24.611 17.7331 22.5554 19.1066C20.4998 20.4801 18.8976 22.4324 17.9515 24.7165C17.0054 27.0005 16.7579 29.5139 17.2402 31.9386C17.7225 34.3634 18.913 36.5907 20.6612 38.3388C22.4093 40.087 24.6366 41.2775 27.0614 41.7598C29.4861 42.2421 31.9995 41.9946 34.2835 41.0485C36.5676 40.1024 38.5199 38.5002 39.8934 36.4446C41.2669 34.389 42 31.9723 42 29.5C41.9934 26.1868 40.6743 23.0112 38.3315 20.6685C35.9888 18.3257 32.8132 17.0066 29.5 17ZM29.5 41C27.2255 41 25.0021 40.3255 23.1109 39.0619C21.2198 37.7983 19.7458 36.0022 18.8754 33.9009C18.005 31.7995 17.7772 29.4872 18.221 27.2565C18.6647 25.0257 19.76 22.9766 21.3683 21.3683C22.9766 19.76 25.0257 18.6647 27.2565 18.221C29.4872 17.7772 31.7995 18.005 33.9009 18.8754C36.0022 19.7458 37.7983 21.2198 39.0619 23.1109C40.3255 25.0021 41 27.2255 41 29.5C40.9967 32.549 39.784 35.4721 37.6281 37.6281C35.4721 39.784 32.549 40.9967 29.5 41ZM34 32C33.9967 32.7946 33.6796 33.5558 33.1177 34.1177C32.5558 34.6796 31.7946 34.9967 31 35H30V36.5C30 36.6326 29.9473 36.7598 29.8536 36.8535C29.7598 36.9473 29.6326 37 29.5 37C29.3674 37 29.2402 36.9473 29.1464 36.8535C29.0527 36.7598 29 36.6326 29 36.5V35H26.5C26.3674 35 26.2402 34.9473 26.1465 34.8535C26.0527 34.7598 26 34.6326 26 34.5C26 34.3674 26.0527 34.2402 26.1465 34.1464C26.2402 34.0527 26.3674 34 26.5 34H31C31.5304 34 32.0391 33.7893 32.4142 33.4142C32.7893 33.0391 33 32.5304 33 32C33 31.4696 32.7893 30.9609 32.4142 30.5858C32.0391 30.2107 31.5304 30 31 30H28C27.2044 30 26.4413 29.6839 25.8787 29.1213C25.3161 28.5587 25 27.7956 25 27C25 26.2043 25.3161 25.4413 25.8787 24.8787C26.4413 24.3161 27.2044 24 28 24H29V22.5C29 22.3674 29.0527 22.2402 29.1464 22.1464C29.2402 22.0527 29.3674 22 29.5 22C29.6326 22 29.7598 22.0527 29.8536 22.1464C29.9473 22.2402 30 22.3674 30 22.5V24H32.5C32.6326 24 32.7598 24.0527 32.8536 24.1464C32.9473 24.2402 33 24.3674 33 24.5C33 24.6326 32.9473 24.7598 32.8536 24.8536C32.7598 24.9473 32.6326 25 32.5 25H28C27.4696 25 26.9609 25.2107 26.5858 25.5858C26.2107 25.9609 26 26.4696 26 27C26 27.5304 26.2107 28.0391 26.5858 28.4142C26.9609 28.7893 27.4696 29 28 29H31C31.7946 29.0033 32.5558 29.3204 33.1177 29.8823C33.6796 30.4442 33.9967 31.2054 34 32Z" fill="#A17550"/>
</svg>
