<svg width="60" height="60" viewBox="0 0 60 60" fill="none" xmlns="http://www.w3.org/2000/svg">
<circle cx="30" cy="30" r="30" fill="#F9F2E4"/>
<path fill-rule="evenodd" clip-rule="evenodd" d="M17 17H18.5625V40.4375H42V42H17V17ZM32.625 22.4688C32.625 22.2615 32.7073 22.0628 32.8538 21.9163C33.0003 21.7698 33.199 21.6875 33.4062 21.6875H39.6562C39.8635 21.6875 40.0622 21.7698 40.2087 21.9163C40.3552 22.0628 40.4375 22.2615 40.4375 22.4688V28.7188C40.4375 28.926 40.3552 29.1247 40.2087 29.2712C40.0622 29.4177 39.8635 29.5 39.6562 29.5C39.449 29.5 39.2503 29.4177 39.1038 29.2712C38.9573 29.1247 38.875 28.926 38.875 28.7188V24.6562L33.2297 31.5578C33.1606 31.6422 33.0746 31.7111 32.9772 31.7602C32.8799 31.8093 32.7733 31.8375 32.6644 31.843C32.5555 31.8484 32.4466 31.831 32.3448 31.7918C32.2431 31.7527 32.1506 31.6927 32.0734 31.6156L28.0312 27.5734L22.3187 35.4281C22.1938 35.587 22.0121 35.6913 21.8118 35.719C21.6116 35.7468 21.4084 35.6958 21.245 35.5769C21.0815 35.4579 20.9705 35.2802 20.9353 35.0812C20.9001 34.8821 20.9435 34.6772 21.0563 34.5094L27.3063 25.9156C27.3726 25.8242 27.458 25.7483 27.5565 25.6931C27.655 25.6379 27.7643 25.6047 27.8768 25.5958C27.9894 25.5869 28.1026 25.6025 28.2085 25.6415C28.3145 25.6805 28.4107 25.7421 28.4906 25.8219L32.5672 29.9L38.0078 23.25H33.4062C33.199 23.25 33.0003 23.1677 32.8538 23.0212C32.7073 22.8747 32.625 22.676 32.625 22.4688Z" fill="#A17550"/>
</svg>
