<svg width="250" height="56" viewBox="0 0 250 56" fill="none" xmlns="http://www.w3.org/2000/svg">
<path d="M25.0549 8.22406L24.872 4.56892C23.5918 3.83789 22.3116 3.10687 21.0315 2.74135C19.7513 2.37584 18.2882 2.19308 16.8252 2.19308C13.1675 2.19308 10.0585 3.28962 7.86394 5.4827C5.66935 7.67579 4.57206 10.7827 4.57206 14.6205C4.57206 17.3619 5.1207 19.555 6.218 21.7481C7.31529 23.7584 8.96123 25.4032 10.9729 26.6825C12.9846 27.9618 15.1792 28.5101 17.5567 28.5101C19.3855 28.5101 21.2143 28.3273 23.0432 27.779C24.3233 27.4135 25.7864 26.8653 27.0666 25.7687L27.4323 26.1342C27.0666 26.6825 26.8837 27.4135 26.7008 27.9618C25.0549 28.6928 23.4089 29.4238 21.763 29.7894C20.117 30.1549 18.4711 30.3376 16.8252 30.3376C13.5333 30.3376 10.4243 29.6066 7.86394 28.3273C5.30358 27.048 3.29188 25.2204 2.0117 22.8446C0.548647 20.4688 0 17.9102 0 14.9861C0 12.062 0.731529 9.50336 2.0117 7.12752C3.47476 4.75168 5.30358 3.10687 7.86394 1.82757C10.4243 0.54827 13.5333 0 17.1909 0C19.2026 0 21.3972 0.365514 23.9576 0.913784C25.2377 1.2793 26.335 1.46205 27.0666 1.64481C26.5179 3.10687 26.1522 5.11719 25.9693 7.85854H24.5062L25.0549 8.22406ZM51.7557 20.1033H39.8683L38.4053 23.3929C37.4909 25.586 36.9422 26.8653 36.9422 27.4135C36.9422 27.779 36.9422 27.9618 37.1251 28.1446C37.308 28.3273 37.6737 28.3273 38.4053 28.5101L40.417 28.6928V29.9721C39.1368 29.9721 37.6737 29.7894 36.0278 29.7894C34.0161 29.7894 32.3702 29.7894 30.7242 29.9721V28.6928H31.2729C32.1873 28.6928 32.9188 28.5101 33.1017 28.3273C33.4674 28.1446 33.6503 27.779 34.0161 27.048C34.9305 25.0377 36.0278 22.8446 36.9422 20.6515L42.6116 7.85854C44.0746 4.38616 45.1719 2.01033 45.7206 0.365514H47.1836L57.6079 24.6722C58.3394 26.317 58.7052 27.2308 59.071 27.5963C59.2538 27.9618 59.6196 28.1446 59.8025 28.3273C60.1683 28.5101 60.7169 28.5101 61.8142 28.6928V29.9721C59.9854 29.9721 58.3394 29.7894 56.6935 29.7894C55.2304 29.7894 53.2187 29.7894 50.6584 29.9721V28.6928L52.6701 28.5101C53.4016 28.5101 53.7674 28.3273 53.9503 28.3273C54.1331 28.1446 54.316 27.9618 54.316 27.779C54.316 27.5963 54.1331 26.8653 53.7674 25.7687L51.5728 20.1033H51.7557ZM40.5999 18.4584H51.0241L45.9034 6.03098L40.7827 18.4584H40.5999ZM80.8339 15.1688C82.1141 17.1791 83.9429 19.3722 85.7718 21.9308L89.7952 27.048C90.5267 27.9618 90.8925 28.5101 91.2582 28.5101C91.4411 28.6928 91.8069 28.6928 91.9898 28.6928H92.5384V29.9721C91.4411 29.9721 90.3438 29.7894 89.6123 29.7894C88.8808 29.7894 87.9663 29.7894 87.0519 29.9721L79.7366 20.1033C78.4565 18.2757 76.9934 16.4481 75.3475 14.8033L75.5304 14.0723C76.2619 14.0723 76.9934 14.255 77.3592 14.255C79.7366 14.255 81.3826 13.7068 82.8456 12.4275C84.1258 11.3309 84.8574 9.68611 84.8574 7.67579C84.8574 5.84822 84.3087 4.56892 83.2114 3.47238C82.1141 2.5586 80.4682 2.01033 78.4565 2.01033C76.9934 2.01033 75.5304 2.19308 74.0673 2.74135C73.8844 4.93443 73.8844 7.31027 73.8844 9.68611V19.555C73.8844 24.3067 74.0673 27.048 74.2502 27.5963C74.4331 28.1446 75.1646 28.3273 76.4448 28.3273H78.0907V29.6066C75.8961 29.6066 73.8844 29.4238 72.4214 29.4238C71.3241 29.4238 69.1295 29.4238 66.0205 29.6066V28.3273H67.4835C68.5808 28.3273 69.3124 28.1446 69.4952 27.5963C69.6781 27.048 69.861 24.3067 69.861 19.555V9.68611C69.861 5.4827 69.6781 3.10687 69.4952 2.5586C69.3124 2.01033 68.3979 1.82757 66.9349 1.82757H65.8376V0.54827C68.3979 0.54827 70.4097 0.731027 71.6898 0.731027C72.6042 0.731027 73.8844 0.731027 75.5304 0.54827C77.5421 0.54827 79.0051 0.365514 79.7366 0.365514C82.1141 0.365514 83.9429 0.54827 85.2231 1.09654C86.5033 1.64481 87.4177 2.37584 87.9663 3.28962C88.6979 4.20341 88.8808 5.29995 88.8808 6.762C88.8808 8.77233 88.1492 10.4171 86.8691 11.8792C85.406 13.3412 83.3943 14.4378 80.8339 14.9861V15.1688ZM125.64 5.11719L119.422 17.9102C117.045 22.6618 115.216 26.8653 113.753 30.5204H112.838C112.29 29.2411 110.827 26.1342 108.449 21.1998L101.134 6.03098V21.7481C101.134 25.4032 101.317 27.5963 101.5 27.9618C101.865 28.5101 102.78 28.6928 104.243 28.6928H104.974V29.9721C103.146 29.9721 101.5 29.7894 100.402 29.7894C99.4879 29.7894 97.842 29.7894 95.2816 29.9721V28.6928H96.5618C97.4762 28.6928 98.0249 28.5101 98.3906 28.3273C98.7564 28.1446 98.9393 27.5963 98.9393 26.8653C99.1222 24.8549 99.1222 22.8446 99.1222 20.6515V8.95508C99.1222 6.21373 99.1222 4.20341 98.9393 3.47238C98.9393 2.92411 98.7564 2.5586 98.3906 2.37584C98.0249 2.19308 97.2933 2.01033 96.3789 2.01033H95.2816V0.731027C97.6591 0.731027 99.1222 0.913784 99.8537 0.913784C100.585 0.913784 101.683 0.913784 103.146 0.731027C104.792 4.38616 106.803 8.58957 108.815 12.9757L114.301 24.1239L119.422 13.7068C121.251 10.0516 123.263 5.66546 125.457 0.54827C127.103 0.54827 128.383 0.731027 129.115 0.731027C129.846 0.731027 131.309 0.731027 133.504 0.54827V1.82757H132.224C130.944 1.82757 130.212 2.01033 130.029 2.37584C129.846 2.74135 129.663 4.38616 129.663 6.94476V21.9308C129.663 25.2204 129.846 27.2308 130.029 27.779C130.395 28.3273 131.127 28.5101 132.407 28.5101H133.504V29.7894C131.675 29.7894 129.846 29.6066 128.018 29.6066C126.006 29.6066 123.994 29.6066 121.982 29.7894V28.5101H123.263C124.36 28.5101 125.091 28.3273 125.274 27.779C125.457 27.2308 125.64 25.2204 125.64 21.7481V4.93443V5.11719ZM145.391 15.8998V21.017V23.9411C145.391 25.7687 145.391 27.048 145.391 27.9618C147.403 28.1446 149.598 28.1446 151.792 28.1446C153.255 28.1446 154.718 28.1446 155.633 27.9618C156.364 27.9618 157.096 27.779 157.827 27.4135C158.193 26.1342 158.559 24.6722 158.925 22.8446H160.205C159.839 25.9515 159.656 27.9618 159.656 28.8756V29.7894C158.01 29.9721 156.547 29.9721 154.901 29.9721H151.609C147.952 29.9721 145.391 29.7894 143.745 29.7894C142.099 29.7894 139.905 29.7894 137.345 29.9721V28.6928H138.076C139.356 28.6928 140.088 28.5101 140.271 28.3273C140.636 28.1446 140.819 27.5963 140.819 26.6825C141.002 25.7687 141.002 23.9411 141.002 21.017V9.68611C141.002 7.85854 141.002 6.39649 140.819 5.11719C140.636 4.02065 140.636 3.28962 140.454 2.92411C140.271 2.74135 140.271 2.5586 140.088 2.37584C139.905 2.19308 139.356 2.19308 138.259 2.01033L136.613 1.82757V0.54827H138.808H141.002C142.282 0.54827 143.197 0.54827 143.745 0.54827L151.609 0.365514H155.45C156.73 0.365514 158.01 0.365514 159.29 0.54827C158.742 2.19308 158.376 4.38616 158.376 6.94476H157.096C157.096 5.4827 157.096 4.20341 156.913 3.10687C155.267 2.5586 153.255 2.19308 150.878 2.19308C149.049 2.19308 147.037 2.19308 145.026 2.37584C145.026 3.65514 145.026 4.93443 145.026 6.21373V9.3206V13.524C146.489 13.524 147.586 13.7068 148.683 13.7068C151.975 13.7068 153.804 13.524 154.353 13.3412C154.718 13.1585 155.084 12.4275 155.084 11.1482V9.86887H156.364C156.181 11.8792 156.181 13.524 156.181 14.8033C156.181 16.0826 156.181 17.7274 156.364 19.3722H155.084V18.0929C155.084 16.8136 154.901 15.8998 154.353 15.7171C153.804 15.3516 151.975 15.3516 148.866 15.3516C147.769 15.3516 146.489 15.3516 145.208 15.5343L145.391 15.8998ZM172.641 27.9618C173.921 27.9618 175.384 28.1446 176.664 28.1446C179.225 28.1446 181.236 28.1446 182.699 27.9618C183.797 27.779 184.711 27.5963 185.808 27.4135L187.089 22.4791H188.369C188.003 25.0377 187.82 27.5963 187.637 29.7894C186.357 29.9721 184.711 30.1549 182.516 30.1549L172.641 29.9721C171.361 29.9721 169.349 29.9721 166.423 30.1549V29.0583C167.52 28.5101 168.252 28.1446 168.435 27.5963C168.617 27.048 168.8 24.8549 168.8 21.017V9.68611C168.8 5.4827 168.617 3.28962 168.435 2.74135C168.252 2.19308 167.703 2.01033 166.789 2.01033H164.594V0.731027C167.886 0.731027 170.08 0.913784 171.178 0.913784C172.641 0.913784 174.47 0.913784 177.03 0.731027V2.01033H174.47C173.738 2.01033 173.189 2.19308 173.007 2.5586C172.824 2.92411 172.641 4.75168 172.641 7.85854V21.017V26.8653V28.1446V27.9618ZM200.073 27.9618C201.353 27.9618 202.816 28.1446 204.097 28.1446C206.657 28.1446 208.669 28.1446 210.132 27.9618C211.229 27.779 212.143 27.5963 213.241 27.4135L214.521 22.4791H215.801C215.435 25.0377 215.252 27.5963 215.069 29.7894C213.789 29.9721 212.143 30.1549 209.949 30.1549L200.073 29.9721C198.793 29.9721 196.781 29.9721 193.855 30.1549V29.0583C194.952 28.5101 195.684 28.1446 195.867 27.5963C196.05 27.048 196.233 24.8549 196.233 21.017V9.68611C196.233 5.4827 196.05 3.28962 195.867 2.74135C195.684 2.19308 195.135 2.01033 194.221 2.01033H192.026V0.731027C195.318 0.731027 197.513 0.913784 198.61 0.913784C200.073 0.913784 201.902 0.913784 204.462 0.731027V2.01033H201.902C201.17 2.01033 200.622 2.19308 200.439 2.5586C200.256 2.92411 200.073 4.75168 200.073 7.85854V21.017V26.8653V28.1446V27.9618ZM239.941 20.1033H228.054L226.591 23.3929C225.677 25.586 225.128 26.8653 225.128 27.4135C225.128 27.779 225.128 27.9618 225.311 28.1446C225.494 28.3273 225.86 28.3273 226.591 28.5101L228.603 28.6928V29.9721C227.323 29.9721 225.86 29.7894 224.214 29.7894C222.202 29.7894 220.556 29.7894 218.91 29.9721V28.6928H219.459C220.373 28.6928 221.105 28.5101 221.287 28.3273C221.653 28.1446 221.836 27.779 222.202 27.048C223.116 25.0377 224.214 22.8446 225.128 20.6515L230.797 7.85854C232.26 4.38616 233.358 2.01033 233.906 0.365514H235.369L245.794 24.6722C246.525 26.317 246.891 27.2308 247.257 27.5963C247.44 27.9618 247.805 28.1446 247.988 28.3273C248.354 28.5101 248.903 28.5101 250 28.6928V29.9721C248.171 29.9721 246.525 29.7894 244.879 29.7894C243.416 29.7894 241.405 29.7894 238.844 29.9721V28.6928L240.856 28.5101C241.587 28.5101 241.953 28.3273 242.136 28.3273C242.319 28.1446 242.502 27.9618 242.502 27.779C242.502 27.5963 242.319 26.8653 241.953 25.7687L239.759 20.1033H239.941ZM228.786 18.4584H239.21L234.089 6.03098L228.969 18.4584H228.786Z" fill="#BA7D22"/>
<path d="M10.4238 44.4099C10.9725 43.8616 11.704 43.3134 12.4355 42.9479C13.167 42.5823 14.0815 42.3996 14.813 42.3996C15.5445 42.3996 16.276 42.5823 17.0076 42.7651C17.7391 42.9479 18.2878 43.3134 18.8364 43.8616L18.2878 44.4099C17.7391 44.0444 17.1905 43.6789 16.6418 43.4961C16.0932 43.3134 15.3616 43.1306 14.813 43.1306C14.0815 43.1306 13.3499 43.3134 12.6184 43.4961C11.8869 43.8616 11.3382 44.2271 10.7896 44.7754C10.2409 45.3237 9.87517 45.872 9.5094 46.603C9.14364 47.334 9.14364 48.065 9.14364 48.7961C9.14364 49.5271 9.32652 50.2581 9.5094 50.9891C9.87517 51.7202 10.2409 52.2684 10.7896 52.8167C11.3382 53.365 11.8869 53.7305 12.6184 54.096C13.3499 54.4615 14.0815 54.4615 14.813 54.4615C15.5445 54.4615 16.276 54.2788 16.8247 54.096C17.3733 53.9133 17.922 53.7305 18.4706 53.365V51.3547H15.3616V50.6236H19.2022V53.9133L19.0193 54.096C18.2878 54.4615 17.7391 54.827 17.0076 55.0098C16.6418 55.1926 16.276 55.1926 15.9103 55.3753C15.5445 55.3753 15.1788 55.3753 14.813 55.3753C13.8986 55.3753 13.167 55.1926 12.4355 54.827C11.704 54.4615 10.9725 54.096 10.4238 53.365C9.87517 52.8167 9.32652 52.0857 8.96076 51.3547C8.59499 50.6236 8.41211 49.7099 8.41211 48.9788C8.41211 48.065 8.59499 47.334 8.96076 46.603C9.32652 45.872 9.69229 45.1409 10.4238 44.5927V44.4099ZM24.6886 43.4961V50.6236H29.4436V51.5374H24.6886V54.4615H29.8093V55.1926H23.9571V42.7651H29.8093V43.4961H24.6886ZM35.1129 42.7651V54.4615H41.3309V55.1926H34.1985V42.7651H34.93H35.1129ZM54.4984 55.1926C54.3156 54.827 54.3156 54.4615 54.1327 54.096C53.9498 53.7305 53.7669 53.365 53.584 52.9995C53.4011 52.634 53.2183 52.0857 53.0354 51.5374H47.7318C47.5489 52.0857 47.366 52.634 47.1831 52.9995C47.0003 53.365 46.8174 53.9133 46.8174 54.096C46.6345 54.4615 46.4516 54.827 46.4516 55.1926H45.5372L50.475 42.3996L55.4128 55.1926H54.4984ZM52.6696 50.6236C52.4867 50.0754 52.121 49.3443 51.9381 48.7961C51.7552 48.2478 51.3894 47.5168 51.2066 46.9685C51.0237 46.4202 50.8408 45.872 50.6579 45.5064C50.475 45.1409 50.2921 44.7754 50.2921 44.5927C50.2921 44.7754 50.1093 45.1409 49.9264 45.5064C49.7435 45.872 49.5606 46.4202 49.3777 46.9685C49.1948 47.5168 49.012 48.065 48.6462 48.7961C48.4633 49.3443 48.0976 50.0754 47.9147 50.6236H52.4867H52.6696ZM65.4714 42.7651V43.4961H61.8137V55.0098H61.0822V43.4961H57.4245V42.7651H65.6542H65.4714ZM70.775 43.4961V50.6236H75.5299V51.5374H70.775V54.4615H75.8957V55.1926H70.0434V42.7651H75.8957V43.4961H70.775ZM86.5028 50.2581C86.3199 50.4409 85.9542 50.6236 85.5884 50.8064C85.2226 50.9891 85.0398 51.1719 84.674 51.1719L88.1488 55.1926H87.0515L83.7596 51.3547H83.5767H83.3938H81.3821V55.0098H80.6506V42.5823H83.3938C83.9425 42.5823 84.4911 42.7651 85.0398 42.9479C85.5884 43.1306 86.1371 43.4961 86.5028 43.8616C87.0515 44.2271 87.4172 44.7754 87.6001 45.3237C87.783 45.872 87.9659 46.4202 87.9659 47.1513C87.9659 47.6995 87.783 48.4306 87.6001 48.9788C87.4172 49.5271 87.0515 50.0754 86.5028 50.4409V50.2581ZM83.2109 50.6236C83.7596 50.6236 84.1254 50.6236 84.674 50.4409C85.2226 50.2581 85.5884 50.0754 85.9542 49.7099C86.3199 49.3443 86.6857 48.9788 86.8686 48.6133C87.0515 48.2478 87.2344 47.6995 87.2344 47.1513C87.2344 46.603 87.0515 46.0547 86.8686 45.6892C86.6857 45.3237 86.3199 44.9582 85.9542 44.5927C85.5884 44.2271 85.2226 44.0444 84.674 43.8616C84.1254 43.6789 83.7596 43.6789 83.2109 43.6789H81.1992V50.6236H83.2109ZM92.5379 42.7651H93.2695V55.1926H92.5379V42.7651ZM106.803 55.1926C106.62 54.827 106.62 54.4615 106.437 54.096C106.254 53.7305 106.071 53.365 105.888 52.9995C105.705 52.634 105.523 52.0857 105.34 51.5374H100.036C99.8532 52.0857 99.6703 52.634 99.4875 52.9995C99.3046 53.365 99.1217 53.9133 99.1217 54.096C98.9388 54.4615 98.7559 54.827 98.7559 55.1926H97.8415L102.779 42.3996L107.717 55.1926H106.803ZM104.974 50.6236C104.791 50.0754 104.425 49.3443 104.242 48.7961C104.06 48.2478 103.694 47.5168 103.511 46.9685C103.328 46.4202 103.145 45.872 102.962 45.5064C102.779 45.1409 102.596 44.7754 102.596 44.5927C102.596 44.7754 102.414 45.1409 102.231 45.5064C102.048 45.872 101.865 46.4202 101.682 46.9685C101.499 47.5168 101.316 48.065 100.951 48.7961C100.768 49.3443 100.402 50.0754 100.219 50.6236H104.791H104.974ZM125.274 55.1926C125.091 54.827 125.091 54.4615 124.908 54.096C124.725 53.7305 124.542 53.365 124.359 52.9995C124.177 52.634 123.994 52.0857 123.811 51.5374H118.507C118.324 52.0857 118.141 52.634 117.959 52.9995C117.776 53.365 117.593 53.9133 117.593 54.096C117.41 54.4615 117.227 54.827 117.227 55.1926H116.313L121.25 42.3996L126.188 55.1926H125.274ZM123.445 50.6236C123.262 50.0754 122.896 49.3443 122.714 48.7961C122.531 48.2478 122.165 47.5168 121.982 46.9685C121.799 46.4202 121.616 45.872 121.433 45.5064C121.25 45.1409 121.068 44.7754 121.068 44.5927C121.068 44.7754 120.885 45.1409 120.702 45.5064C120.519 45.872 120.336 46.4202 120.153 46.9685C119.97 47.5168 119.787 48.065 119.422 48.7961C119.239 49.3443 118.873 50.0754 118.69 50.6236H123.262H123.445ZM136.613 50.2581C136.43 50.4409 136.064 50.6236 135.698 50.8064C135.332 50.9891 135.149 51.1719 134.784 51.1719L138.258 55.1926H137.161L133.869 51.3547H133.686H133.504H131.492V55.0098H130.76V42.5823H133.504C134.052 42.5823 134.601 42.7651 135.149 42.9479C135.698 43.1306 136.247 43.4961 136.613 43.8616C137.161 44.2271 137.527 44.7754 137.71 45.3237C137.893 45.872 138.076 46.4202 138.076 47.1513C138.076 47.6995 137.893 48.4306 137.71 48.9788C137.527 49.5271 137.161 50.0754 136.613 50.4409V50.2581ZM133.321 50.6236C133.869 50.6236 134.235 50.6236 134.784 50.4409C135.332 50.2581 135.698 50.0754 136.064 49.7099C136.43 49.3443 136.795 48.9788 136.978 48.6133C137.161 48.2478 137.344 47.6995 137.344 47.1513C137.344 46.603 137.161 46.0547 136.978 45.6892C136.795 45.3237 136.43 44.9582 136.064 44.5927C135.698 44.2271 135.332 44.0444 134.784 43.8616C134.235 43.6789 133.869 43.6789 133.321 43.6789H131.309V50.6236H133.321ZM149.231 42.7651V43.4961H145.574V55.0098H144.842V43.4961H141.185V42.7651H149.414H149.231ZM153.803 42.7651H154.535V55.1926H153.803V42.7651ZM160.936 44.4099C161.485 43.8616 162.216 43.3134 162.948 42.9479C163.679 42.5823 164.594 42.3996 165.325 42.3996C166.057 42.3996 166.788 42.5823 167.52 42.7651C168.251 42.9479 168.8 43.3134 169.348 43.8616L168.8 44.4099C168.251 44.0444 167.703 43.6789 167.154 43.4961C166.605 43.3134 165.874 43.1306 165.325 43.1306C164.594 43.1306 163.862 43.3134 163.13 43.4961C162.399 43.8616 161.85 44.2271 161.302 44.7754C160.753 45.3237 160.387 45.872 160.021 46.603C159.656 47.334 159.656 48.065 159.656 48.7961C159.656 49.5271 159.839 50.2581 160.021 50.9891C160.387 51.7202 160.753 52.2684 161.302 52.8167C161.85 53.365 162.399 53.7305 163.13 54.096C163.862 54.4615 164.594 54.4615 165.325 54.4615C166.057 54.4615 166.788 54.2788 167.337 54.096C167.885 53.9133 168.434 53.7305 168.983 53.365V51.3547H165.874V50.6236H169.714V53.9133L169.531 54.096C168.8 54.4615 168.251 54.827 167.52 55.0098C167.154 55.1926 166.788 55.1926 166.422 55.3753C166.057 55.3753 165.691 55.3753 165.325 55.3753C164.411 55.3753 163.679 55.1926 162.948 54.827C162.216 54.4615 161.485 54.096 160.936 53.365C160.387 52.8167 159.839 52.0857 159.473 51.3547C159.107 50.6236 158.924 49.7099 158.924 48.9788C158.924 48.065 159.107 47.334 159.473 46.603C159.839 45.872 160.204 45.1409 160.936 44.5927V44.4099ZM174.469 42.7651H175.201V55.1926H174.469V42.7651ZM188.734 55.1926C188.551 54.827 188.551 54.4615 188.368 54.096C188.185 53.7305 188.002 53.365 187.82 52.9995C187.637 52.634 187.454 52.0857 187.271 51.5374H181.967C181.784 52.0857 181.602 52.634 181.419 52.9995C181.236 53.365 181.053 53.9133 181.053 54.096C180.87 54.4615 180.687 54.827 180.687 55.1926H179.773L184.711 42.3996L189.648 55.1926H188.734ZM186.905 50.6236C186.722 50.0754 186.357 49.3443 186.174 48.7961C185.991 48.2478 185.625 47.5168 185.442 46.9685C185.259 46.4202 185.076 45.872 184.893 45.5064C184.711 45.1409 184.528 44.7754 184.528 44.5927C184.528 44.7754 184.345 45.1409 184.162 45.5064C183.979 45.872 183.796 46.4202 183.613 46.9685C183.43 47.5168 183.248 48.065 182.882 48.7961C182.699 49.3443 182.333 50.0754 182.15 50.6236H186.722H186.905ZM194.038 42.3996C195.684 44.2271 197.147 45.872 198.427 47.334C198.975 48.065 199.524 48.6133 200.073 49.3443C200.621 50.0754 201.17 50.6236 201.719 51.1719C202.267 51.7202 202.633 52.2684 202.999 52.634C203.365 52.9995 203.547 53.365 203.73 53.5477V42.9479H204.645V55.7408C202.999 53.9133 201.536 52.2684 200.256 50.8064C199.707 50.2581 199.158 49.5271 198.61 48.7961C198.061 48.065 197.512 47.5168 196.964 46.9685C196.415 46.4202 196.049 45.872 195.684 45.5064C195.318 45.1409 195.135 44.7754 194.952 44.5927V55.1926H194.22V42.3996H194.038ZM217.995 55.1926C217.812 54.827 217.812 54.4615 217.629 54.096C217.447 53.7305 217.264 53.365 217.081 52.9995C216.898 52.634 216.715 52.0857 216.532 51.5374H211.229C211.046 52.0857 210.863 52.634 210.68 52.9995C210.497 53.365 210.314 53.9133 210.314 54.096C210.131 54.4615 209.948 54.827 209.948 55.1926H209.034L213.972 42.3996L218.91 55.1926H217.995ZM216.166 50.6236C215.983 50.0754 215.618 49.3443 215.435 48.7961C215.252 48.2478 214.886 47.5168 214.703 46.9685C214.52 46.4202 214.338 45.872 214.155 45.5064C213.972 45.1409 213.789 44.7754 213.789 44.5927C213.789 44.7754 213.606 45.1409 213.423 45.5064C213.24 45.872 213.057 46.4202 212.874 46.9685C212.692 47.5168 212.509 48.065 212.143 48.7961C211.96 49.3443 211.594 50.0754 211.411 50.6236H215.983H216.166ZM224.213 42.7651V54.4615H230.431V55.1926H223.299V42.7651H224.03H224.213ZM235.918 43.4961V50.6236H240.673V51.5374H235.918V54.4615H241.038V55.1926H235.186V42.7651H241.038V43.4961H235.918Z" fill="#A1754F"/>
</svg>
