<svg width="90" height="90" viewBox="0 0 90 90" fill="none" xmlns="http://www.w3.org/2000/svg">
<path d="M37.1372 31.0732C37.524 30.874 37.9583 30.7854 38.3922 30.8171C38.8262 30.8488 39.2429 30.9996 39.5967 31.2529L56.1507 43.0772C56.4573 43.296 56.7072 43.5848 56.8796 43.9196C57.052 44.2545 57.1419 44.6256 57.1419 45.0022C57.1419 45.3788 57.052 45.75 56.8796 46.0848C56.7072 46.4197 56.4573 46.7085 56.1507 46.9272L39.5967 58.7515C39.2431 59.0046 38.8265 59.1553 38.3928 59.187C37.9591 59.2187 37.525 59.1303 37.1383 58.9313C36.7517 58.7323 36.4273 58.4306 36.201 58.0593C35.9747 57.688 35.8551 57.2614 35.8555 56.8265V33.1779C35.855 32.7432 35.9744 32.3167 36.2005 31.9454C36.4267 31.5741 36.7508 31.2723 37.1372 31.0732Z" fill="#A17550"/>
<g filter="url(#filter0_d_741_291)">
<path d="M80 45C80 54.2826 76.3125 63.185 69.7487 69.7487C63.185 76.3125 54.2826 80 45 80C35.7174 80 26.815 76.3125 20.2513 69.7487C13.6875 63.185 10 54.2826 10 45C10 35.7174 13.6875 26.815 20.2513 20.2513C26.815 13.6875 35.7174 10 45 10C54.2826 10 63.185 13.6875 69.7487 20.2513C76.3125 26.815 80 35.7174 80 45ZM39.7062 32.2819C39.3792 32.049 38.9943 31.9106 38.5938 31.8819C38.1933 31.8533 37.7926 31.9354 37.4357 32.1192C37.0787 32.3031 36.7793 32.5817 36.5701 32.9245C36.361 33.2673 36.2502 33.661 36.25 34.0625V55.9375C36.2502 56.339 36.361 56.7327 36.5701 57.0755C36.7793 57.4183 37.0787 57.6969 37.4357 57.8808C37.7926 58.0646 38.1933 58.1467 38.5938 58.1181C38.9943 58.0894 39.3792 57.951 39.7062 57.7181L55.0187 46.7806C55.3023 46.5783 55.5335 46.3111 55.6929 46.0014C55.8524 45.6917 55.9356 45.3484 55.9356 45C55.9356 44.6516 55.8524 44.3083 55.6929 43.9986C55.5335 43.6889 55.3023 43.4217 55.0187 43.2194L39.7062 32.2819Z" fill="white"/>
</g>
<defs>
<filter id="filter0_d_741_291" x="0" y="0" width="90" height="90" filterUnits="userSpaceOnUse" color-interpolation-filters="sRGB">
<feFlood flood-opacity="0" result="BackgroundImageFix"/>
<feColorMatrix in="SourceAlpha" type="matrix" values="0 0 0 0 0 0 0 0 0 0 0 0 0 0 0 0 0 0 127 0" result="hardAlpha"/>
<feOffset/>
<feGaussianBlur stdDeviation="5"/>
<feComposite in2="hardAlpha" operator="out"/>
<feColorMatrix type="matrix" values="0 0 0 0 0 0 0 0 0 0 0 0 0 0 0 0 0 0 0.25 0"/>
<feBlend mode="normal" in2="BackgroundImageFix" result="effect1_dropShadow_741_291"/>
<feBlend mode="normal" in="SourceGraphic" in2="effect1_dropShadow_741_291" result="shape"/>
</filter>
</defs>
</svg>
