<svg width="28" height="27" viewBox="0 0 28 27" fill="none" xmlns="http://www.w3.org/2000/svg">
<path fill-rule="evenodd" clip-rule="evenodd" d="M14.9036 23.0789C20.0699 19.7545 22.5786 16.3236 22.5786 10.5912C22.2384 10.6977 21.9408 10.6977 21.6431 10.6977C18.9431 10.6977 16.328 8.86503 16.328 5.56196C16.328 2.13101 18.5178 -2.98574e-06 21.6431 -3.25896e-06C25.6826 -3.6121e-06 28 3.23915 28 9.05683C28 17.1547 24.2794 22.9724 17.3273 27L14.9036 23.0789ZM0.0212628 23.0789C5.18755 19.7545 7.69628 16.3236 7.69628 10.5912C7.35611 10.6977 7.05847 10.6977 6.76082 10.6977C4.06075 10.6977 1.44571 8.86503 1.44571 5.56196C1.44571 2.13102 3.63554 -1.68469e-06 6.76082 -1.95791e-06C10.779 -2.30919e-06 13.0964 3.23915 13.0964 9.05683C13.0964 17.1547 9.37586 22.9724 2.42369 27L3.47191e-06 23.0789L0.0212628 23.0789Z" fill="#A17550"/>
</svg>
