<svg width="61" height="61" viewBox="0 0 61 61" fill="none" xmlns="http://www.w3.org/2000/svg">
<rect x="0.574219" y="0.429596" width="60" height="60" rx="30" fill="#F9F2E4"/>
<path d="M50.3147 12.7598C50.2571 12.5259 50.0744 12.3433 49.8406 12.2857C48.7894 12.0268 47.6864 11.961 46.5614 12.0909C43.9089 12.3967 41.3022 13.7112 39.2214 15.7919C37.1406 17.8727 35.8262 20.4795 35.5203 23.132C35.4053 24.1293 35.4445 25.1095 35.6354 26.0516C35.6263 26.0611 35.6164 26.0694 35.6078 26.0796C32.7556 29.4681 30.8246 33.1484 29.5376 36.7915C28.4328 32.5038 26.7849 28.5594 24.6214 25.0422C21.4008 19.8063 17.0067 15.4592 11.5609 12.1214C11.2761 11.9469 10.9055 12.0174 10.7046 12.2841C10.5038 12.5508 10.5384 12.9265 10.7847 13.1519C17.3992 19.2059 22.059 26.2419 24.6348 34.0645C25.7196 37.3589 27.1618 42.7379 27.1618 51.378C27.1618 51.7359 27.4519 52.026 27.8097 52.026H30.5743C30.9321 52.026 31.2222 51.7359 31.2222 51.378C31.2222 50.9083 31.2197 50.4274 31.2171 49.9363C31.1833 43.4824 31.1406 35.3115 36.7417 27.0022C37.2691 27.0969 37.8076 27.1446 38.3541 27.1446C38.7223 27.1445 39.0942 27.123 39.4683 27.0798C42.1208 26.774 44.7275 25.4595 46.8083 23.3787C48.889 21.298 50.2035 18.6911 50.5094 16.0387C50.6393 14.9141 50.5737 13.8109 50.3147 12.7598ZM25.8658 33.6592C24.0011 27.9959 21.0763 22.7369 17.1389 17.9533C19.6175 20.2523 21.7507 22.8485 23.5176 25.7211C25.9596 29.6912 27.727 34.2285 28.7728 39.2073C28.4309 40.4241 28.1554 41.6283 27.9354 42.8075C27.5616 39.9894 26.9294 36.8897 25.8658 33.6592ZM29.9212 49.9431C29.9227 50.2085 29.924 50.4709 29.925 50.7301H28.462C28.5191 46.4736 29.1557 41.1511 31.2755 35.8522C29.8745 41.0279 29.9002 45.9276 29.9212 49.9431ZM49.2222 15.8903C48.6576 20.7858 44.2154 25.228 39.3199 25.7926C38.7313 25.8606 38.151 25.8655 37.5842 25.8103C39.6832 22.9726 42.4699 20.1277 46.1696 17.338C46.4553 17.1227 46.5123 16.7164 46.2968 16.4306C46.0814 16.1449 45.6751 16.0879 45.3894 16.3033C41.8982 18.9357 39.0362 21.7303 36.7673 24.7296C36.7386 24.2543 36.7511 23.7702 36.8077 23.2803C37.3723 18.3848 41.8145 13.9426 46.71 13.378C47.5421 13.2821 48.3582 13.3094 49.1415 13.4589C49.2909 14.2422 49.3182 15.0582 49.2222 15.8903Z" fill="#A17550"/>
</svg>
