<svg width="27" height="27" viewBox="0 0 27 27" fill="none" xmlns="http://www.w3.org/2000/svg">
<path d="M22.874 4.2757C20.4315 1.84236 17.1823 0.501419 13.7242 0.500031C10.2739 0.500031 7.0195 1.83978 4.56097 4.27252C2.09808 6.70943 0.740479 9.94792 0.737305 13.3796V13.3836V13.386C0.737701 15.463 1.2834 17.5584 2.31926 19.471L0.772812 26.5L7.88278 24.8828C9.68353 25.7903 11.6928 26.2687 13.7193 26.2695H13.7244C17.1742 26.2695 20.4285 24.9296 22.8875 22.4966C25.3525 20.0578 26.7107 16.8234 26.7123 13.3895C26.7133 9.97986 25.3503 6.74315 22.874 4.2757V4.2757ZM13.7242 24.2403H13.7197C11.9001 24.2395 10.0971 23.7826 8.50604 22.9188L8.16982 22.7363L3.442 23.8116L4.46893 19.1445L4.27097 18.8031C3.28668 17.1057 2.76657 15.2319 2.76657 13.3838C2.77034 7.40172 7.68541 2.5293 13.7238 2.5293C16.641 2.53049 19.382 3.66136 21.4418 5.71324C23.5327 7.79686 24.6838 10.5228 24.6828 13.3889C24.6805 19.3724 19.7644 24.2403 13.7242 24.2403V24.2403Z" fill="#A17550"/>
<path d="M10.1903 7.70404H9.62096C9.42279 7.70404 9.10104 7.77823 8.82889 8.07439C8.55653 8.37074 7.78906 9.08704 7.78906 10.5438C7.78906 12.0006 8.85368 13.4082 9.00206 13.606C9.15063 13.8035 11.0571 16.8885 14.0766 18.0753C16.5861 19.0616 17.0969 18.8654 17.6414 18.816C18.1861 18.7668 19.3991 18.0999 19.6467 17.4086C19.8942 16.7173 19.8942 16.1246 19.8201 16.0008C19.7457 15.8774 19.5475 15.8035 19.2505 15.6555C18.9534 15.5073 17.4974 14.7789 17.2251 14.6799C16.9527 14.5813 16.7547 14.5319 16.5566 14.8285C16.3584 15.1245 15.775 15.8092 15.6016 16.0068C15.4285 16.2045 15.2551 16.2293 14.9579 16.0812C14.6608 15.9326 13.7138 15.6144 12.579 14.6059C11.6956 13.821 11.0827 12.8201 10.9093 12.5237C10.7362 12.2275 10.8909 12.0673 11.0399 11.9195C11.1734 11.787 11.3537 11.6057 11.5022 11.4329C11.6506 11.2599 11.6929 11.1365 11.7921 10.939C11.891 10.7414 11.8414 10.5684 11.7673 10.4204C11.6929 10.2723 11.1228 8.80814 10.8586 8.22256H10.8587C10.6362 7.72943 10.4019 7.71277 10.1903 7.70404V7.70404Z" fill="#A17550"/>
</svg>
