<svg width="40" height="38" viewBox="0 0 40 38" fill="none" xmlns="http://www.w3.org/2000/svg">
<path fill-rule="evenodd" clip-rule="evenodd" d="M6.84223 36.4012C7.37025 37.3873 8.40029 38.0033 9.52032 38.0013C9.99234 38.0033 10.4604 37.8933 10.8804 37.6813L19.9847 32.9211C20.0087 32.9071 20.0367 32.8991 20.0647 32.9011L29.107 37.6213C29.545 37.8573 30.035 37.9793 30.531 37.9773C30.689 37.9773 30.8491 37.9633 31.0051 37.9413C32.6331 37.6753 33.7452 36.1512 33.5051 34.5212L31.7451 24.5008C31.7349 24.4863 31.7321 24.4855 31.7314 24.4838C31.7311 24.4832 31.7311 24.4825 31.7311 24.4808C31.7311 24.4748 31.7451 24.4608 31.7451 24.4608L39.0853 17.3606C40.1694 16.3146 40.3074 14.6285 39.4053 13.4205C38.9153 12.7884 38.1973 12.3724 37.4053 12.2604L27.2809 10.8004C27.2629 10.8004 27.2429 10.7804 27.2229 10.7604L22.7008 1.68006C22.1908 0.654022 21.1467 0.0060002 20.0007 0C19.6687 0 19.3367 0.0520018 19.0206 0.160005C18.2626 0.418014 17.6366 0.962033 17.2806 1.68006L12.7644 10.7344C12.7644 10.7764 12.7224 10.7944 12.6824 10.7944L2.58209 12.2544C1.96407 12.3584 1.38805 12.6344 0.922031 13.0544C0.332011 13.6325 0 14.4265 0 15.2545C0.00200007 16.0405 0.318011 16.7926 0.88003 17.3406L8.28028 24.4608C8.29628 24.4768 8.30228 24.4988 8.30228 24.5208L6.52022 34.5012C6.41422 35.1532 6.52822 35.8212 6.84223 36.4012ZM19.943 2.93402L19.963 2.92002H20.001L20.019 2.93802C20.037 2.93802 20.053 2.94202 20.067 2.95402C20.079 2.96602 20.085 2.98202 20.083 3.00002L24.6032 12.0383C25.0372 12.9284 25.8812 13.5484 26.8613 13.6984L36.9856 15.1704C37.0036 15.1704 37.0216 15.1744 37.0376 15.1824C37.0476 15.1844 37.0556 15.1844 37.0656 15.1824L37.0856 15.2004L37.0656 15.2444L29.7254 22.3627C28.9953 23.0467 28.6693 24.0587 28.8633 25.0408L30.6254 35.0031L30.5854 35.0411H30.5434C30.5354 35.0451 30.5274 35.0451 30.5194 35.0411C30.4994 35.0391 30.4794 35.0311 30.4614 35.0211H30.4434L21.4431 30.321C21.0111 30.0969 20.5311 29.9769 20.043 29.9789C19.541 29.9789 19.045 30.1049 18.601 30.341L9.54268 35.0911C9.53268 35.0931 9.52068 35.0931 9.51068 35.0911C9.46867 35.0911 9.43267 35.0631 9.42267 35.0231V34.9831L11.1827 25.0228C11.3467 24.0487 11.0267 23.0547 10.3227 22.3627L2.92245 15.2624C2.92045 15.2324 2.92445 15.2064 2.94045 15.1804L3.06245 15.1404L13.1228 13.6984C14.1028 13.5464 14.9449 12.9284 15.3809 12.0383L19.903 2.97802C19.913 2.96002 19.925 2.94402 19.943 2.93402Z" fill="#A17550"/>
</svg>
