<svg width="26" height="26" viewBox="0 0 26 26" fill="none" xmlns="http://www.w3.org/2000/svg">
<path d="M15.0139 13.2301C15.0139 13.6741 14.8823 14.1081 14.6356 14.4772C14.3889 14.8464 14.0383 15.1341 13.6282 15.304C13.218 15.4739 12.7666 15.5183 12.3312 15.4317C11.8957 15.3451 11.4958 15.1313 11.1818 14.8173C10.8679 14.5034 10.6541 14.1034 10.5675 13.6679C10.4809 13.2325 10.5254 12.7811 10.6953 12.371C10.8653 11.9608 11.153 11.6102 11.5222 11.3636C11.8913 11.1169 12.3254 10.9853 12.7693 10.9854C13.3647 10.9854 13.9356 11.2219 14.3565 11.6429C14.7774 12.0639 15.0139 12.6348 15.0139 13.2301Z" fill="#A17550"/>
<path d="M16.5602 6.44604H8.97813C8.18464 6.44694 7.42391 6.76257 6.86285 7.32366C6.30178 7.88476 5.9862 8.6455 5.98535 9.43899V17.0211C5.98621 17.8146 6.30181 18.5753 6.86291 19.1364C7.42401 19.6976 8.18478 20.0132 8.9783 20.014H16.5604C17.3539 20.0132 18.1147 19.6976 18.6758 19.1364C19.2369 18.5753 19.5525 17.8146 19.5533 17.0211V9.43899C19.5525 8.64544 19.2368 7.88465 18.6757 7.32354C18.1146 6.76244 17.3537 6.44685 16.5602 6.44604ZM12.7692 16.971C12.0292 16.971 11.3059 16.7516 10.6907 16.3405C10.0755 15.9294 9.59596 15.3451 9.3128 14.6615C9.02964 13.9779 8.95555 13.2257 9.09991 12.5C9.24426 11.7743 9.60057 11.1077 10.1238 10.5845C10.647 10.0613 11.3136 9.70495 12.0393 9.5606C12.765 9.41625 13.5172 9.49033 14.2008 9.77349C14.8844 10.0566 15.4687 10.5362 15.8798 11.1514C16.2909 11.7666 16.5103 12.4899 16.5103 13.2299C16.5092 14.2217 16.1147 15.1726 15.4134 15.8739C14.712 16.5753 13.7612 16.9698 12.7693 16.971H12.7692ZM17.0589 9.68828C16.911 9.68828 16.7663 9.6444 16.6433 9.56218C16.5202 9.47997 16.4243 9.36312 16.3677 9.2264C16.3111 9.08969 16.2962 8.93925 16.3251 8.79412C16.354 8.64898 16.4252 8.51567 16.5299 8.41103C16.6345 8.30639 16.7678 8.23513 16.913 8.20626C17.0581 8.17739 17.2085 8.19221 17.3453 8.24884C17.482 8.30547 17.5988 8.40137 17.681 8.52441C17.7632 8.64745 17.8071 8.79211 17.8071 8.94008C17.8071 9.13849 17.7283 9.32877 17.588 9.46908C17.4478 9.60939 17.2575 9.68823 17.0591 9.68828H17.0589Z" fill="#A17550"/>
<path d="M18.8053 0.460449H6.73409C4.94872 0.46247 3.23705 1.1726 1.9746 2.43505C0.712152 3.6975 0.00202115 5.40917 0 7.19454L0 19.2659C0.00206606 21.0513 0.712217 22.7629 1.97466 24.0253C3.23711 25.2877 4.94875 25.9978 6.73409 25.9999H18.8055C20.5908 25.9978 22.3025 25.2876 23.5649 24.0252C24.8273 22.7628 25.5374 21.0511 25.5394 19.2658V7.19454C25.5374 5.40917 24.8273 3.6975 23.5648 2.43505C22.3024 1.1726 20.5907 0.46247 18.8053 0.460449V0.460449ZM21.0501 17.0212C21.0487 18.2114 20.5753 19.3525 19.7337 20.1941C18.8921 21.0358 17.751 21.5092 16.5607 21.5105H8.97867C7.78844 21.5092 6.64734 21.0358 5.80572 20.1941C4.9641 19.3525 4.49068 18.2114 4.48934 17.0212V9.43912C4.49068 8.24889 4.9641 7.10779 5.80572 6.26617C6.64734 5.42455 7.78844 4.95113 8.97867 4.94979H16.5607C17.751 4.95113 18.8921 5.42455 19.7337 6.26617C20.5753 7.10779 21.0487 8.24889 21.0501 9.43912V17.0212Z" fill="#A17550"/>
</svg>
