<svg width="20" height="20" viewBox="0 0 20 20" fill="none" xmlns="http://www.w3.org/2000/svg">
<path fill-rule="evenodd" clip-rule="evenodd" d="M14.334 0H5.665C2.26743 0 0 2.43259 0 5.91599V14.084C0 17.5707 2.26137 20 5.665 20H14.333C17.7376 20 20 17.5707 20 14.084V5.91599C20 2.4295 17.7378 0 14.334 0ZM5.665 1.5H14.334C16.8845 1.5 18.5 3.23495 18.5 5.91599V14.084C18.5 16.7652 16.8844 18.5 14.333 18.5H5.665C3.11476 18.5 1.5 16.7653 1.5 14.084V5.91599C1.5 3.23837 3.12034 1.5 5.665 1.5ZM14.0898 7.09662C13.797 6.80374 13.3221 6.80374 13.0292 7.09662L8.81261 11.3118L6.96973 9.46951L6.8856 9.39691C6.59194 9.17911 6.17528 9.2034 5.90907 9.46973C5.61624 9.7627 5.61634 10.2375 5.9093 10.5304L8.2833 12.9034L8.36742 12.976C8.66103 13.1938 9.07762 13.1695 9.34384 12.9033L14.0898 8.15729L14.1625 8.07315C14.3803 7.77954 14.3561 7.36288 14.0898 7.09662Z" fill="#A17550"/>
</svg>
