<svg width="117" height="90" viewBox="0 0 117 90" fill="none" xmlns="http://www.w3.org/2000/svg">
<path d="M106.282 7.71262C113.02 14.8692 116.638 22.8958 116.638 35.9072C116.638 58.803 100.565 79.3243 77.1917 89.4704L71.35 80.456C93.1664 68.6548 97.4316 53.3408 99.1324 43.6853C95.6195 45.5038 91.0208 46.1384 86.5135 45.7197C74.7124 44.6273 65.4101 34.939 65.4101 22.8958C65.4101 16.8235 67.8224 10.9998 72.1162 6.70604C76.41 2.41223 82.2336 0 88.306 0C95.3252 0 102.037 3.20542 106.282 7.71262ZM40.8658 7.71262C47.6037 14.8692 51.2212 22.8958 51.2212 35.9072C51.2212 58.803 35.1484 79.3243 11.775 89.4704L5.93329 80.456C27.7497 68.6548 32.0149 53.3408 33.7158 43.6853C30.2029 45.5038 25.6041 46.1384 21.0969 45.7197C9.29571 44.6273 0 34.939 0 22.8958C0 16.8235 2.41223 10.9998 6.70603 6.70604C10.9998 2.41223 16.8235 0 22.8958 0C29.915 0 36.6268 3.20542 40.8723 7.71262H40.8658Z" fill="#F8F8F8" fill-opacity="0.8"/>
</svg>
