<svg width="180" height="41" viewBox="0 0 180 41" fill="none" xmlns="http://www.w3.org/2000/svg">
<path d="M18.0395 5.92132L17.9078 3.28962C16.9861 2.76328 16.0644 2.23694 15.1426 1.97377C14.2209 1.7106 13.1675 1.57902 12.1141 1.57902C9.48061 1.57902 7.24214 2.36853 5.66203 3.94755C4.08193 5.52657 3.29188 7.76351 3.29188 10.5268C3.29188 12.5006 3.68691 14.0796 4.47696 15.6586C5.26701 17.106 6.45208 18.2903 7.90051 19.2114C9.34894 20.1325 10.929 20.5272 12.6408 20.5272C13.9576 20.5272 15.2743 20.3957 16.5911 20.0009C17.5128 19.7377 18.5662 19.343 19.4879 18.5535L19.7513 18.8166C19.4879 19.2114 19.3563 19.7377 19.2246 20.1325C18.0395 20.6588 16.8544 21.1852 15.6693 21.4483C14.4843 21.7115 13.2992 21.8431 12.1141 21.8431C9.74397 21.8431 7.50549 21.3168 5.66203 20.3957C3.81858 19.4746 2.37015 18.1587 1.44843 16.4481C0.395026 14.7375 0 12.8953 0 10.79C0 8.6846 0.526701 6.84242 1.44843 5.13181C2.50183 3.42121 3.81858 2.23694 5.66203 1.31585C7.50549 0.394755 9.74397 0 12.3775 0C13.8259 0 15.406 0.26317 17.2495 0.657925C18.1712 0.921094 18.9612 1.05268 19.4879 1.18426C19.0929 2.23694 18.8296 3.68438 18.6979 5.65815H17.6445L18.0395 5.92132ZM37.2641 14.4743H28.7052L27.6518 16.8429C26.9934 18.4219 26.5984 19.343 26.5984 19.7377C26.5984 20.0009 26.5984 20.1325 26.7301 20.2641C26.8617 20.3957 27.1251 20.3957 27.6518 20.5272L29.1002 20.6588V21.5799C28.1785 21.5799 27.1251 21.4483 25.94 21.4483C24.4916 21.4483 23.3065 21.4483 22.1214 21.5799V20.6588H22.5165C23.1748 20.6588 23.7015 20.5272 23.8332 20.3957C24.0966 20.2641 24.2282 20.0009 24.4916 19.4746C25.15 18.0271 25.94 16.4481 26.5984 14.8691L30.6803 5.65815C31.7337 3.15804 32.5238 1.44743 32.9188 0.26317H33.9722L41.4777 17.764C42.0044 18.9482 42.2677 19.6062 42.5311 19.8693C42.6628 20.1325 42.9261 20.2641 43.0578 20.3957C43.3211 20.5272 43.7162 20.5272 44.5062 20.6588V21.5799C43.1895 21.5799 42.0044 21.4483 40.8193 21.4483C39.7659 21.4483 38.3175 21.4483 36.474 21.5799V20.6588L37.9225 20.5272C38.4492 20.5272 38.7125 20.3957 38.8442 20.3957C38.9759 20.2641 39.1075 20.1325 39.1075 20.0009C39.1075 19.8693 38.9759 19.343 38.7125 18.5535L37.1324 14.4743H37.2641ZM29.2319 13.2901H36.7374L33.0505 4.3423L29.3636 13.2901H29.2319ZM58.2004 10.9215C59.1222 12.369 60.4389 13.948 61.7557 15.7902L64.6525 19.4746C65.1792 20.1325 65.4426 20.5272 65.7059 20.5272C65.8376 20.6588 66.101 20.6588 66.2326 20.6588H66.6276V21.5799C65.8376 21.5799 65.0475 21.4483 64.5209 21.4483C63.9941 21.4483 63.3358 21.4483 62.6774 21.5799L57.4104 14.4743C56.4887 13.1585 55.4353 11.8426 54.2502 10.6584L54.3819 10.132C54.9086 10.132 55.4353 10.2636 55.6986 10.2636C57.4104 10.2636 58.5955 9.86887 59.6489 8.94777C60.5706 8.15826 61.0973 6.974 61.0973 5.52657C61.0973 4.21072 60.7023 3.28962 59.9122 2.50011C59.1222 1.84219 57.9371 1.44743 56.4887 1.44743C55.4353 1.44743 54.3819 1.57902 53.3285 1.97377C53.1968 3.55279 53.1968 5.2634 53.1968 6.974V14.0796C53.1968 17.5008 53.3285 19.4746 53.4601 19.8693C53.5918 20.2641 54.1185 20.3957 55.0402 20.3957H56.2253V21.3168C54.6452 21.3168 53.1968 21.1852 52.1434 21.1852C51.3533 21.1852 49.7732 21.1852 47.5347 21.3168V20.3957H48.5882C49.3782 20.3957 49.9049 20.2641 50.0366 19.8693C50.1683 19.4746 50.2999 17.5008 50.2999 14.0796V6.974C50.2999 3.94755 50.1683 2.23694 50.0366 1.84219C49.9049 1.44743 49.2465 1.31585 48.1931 1.31585H47.4031V0.394755C49.2465 0.394755 50.695 0.52634 51.6167 0.52634C52.2751 0.52634 53.1968 0.52634 54.3819 0.394755C55.8303 0.394755 56.8837 0.26317 57.4104 0.26317C59.1222 0.26317 60.4389 0.394755 61.3606 0.789509C62.2824 1.18426 62.9407 1.7106 63.3358 2.36853C63.8625 3.02645 63.9941 3.81596 63.9941 4.86864C63.9941 6.31608 63.4674 7.50034 62.5457 8.55302C61.4923 9.6057 60.0439 10.3952 58.2004 10.79V10.9215ZM90.4609 3.68438L85.9839 12.8953C84.2721 16.3165 82.9554 19.343 81.902 21.9747H81.2436C80.8486 21.0536 79.7952 18.8166 78.0834 15.2639L72.8164 4.3423V15.6586C72.8164 18.2903 72.9481 19.8693 73.0797 20.1325C73.3431 20.5272 74.0015 20.6588 75.0549 20.6588H75.5816V21.5799C74.2648 21.5799 73.0797 21.4483 72.2897 21.4483C71.6313 21.4483 70.4462 21.4483 68.6028 21.5799V20.6588H69.5245C70.1829 20.6588 70.5779 20.5272 70.8413 20.3957C71.1046 20.2641 71.2363 19.8693 71.2363 19.343C71.368 17.8955 71.368 16.4481 71.368 14.8691V6.44766C71.368 4.47389 71.368 3.02645 71.2363 2.50011C71.2363 2.10536 71.1046 1.84219 70.8413 1.7106C70.5779 1.57902 70.0512 1.44743 69.3928 1.44743H68.6028V0.52634C70.3146 0.52634 71.368 0.657925 71.8947 0.657925C72.4214 0.657925 73.2114 0.657925 74.2648 0.52634C75.4499 3.15804 76.8983 6.18449 78.3467 9.34253L82.297 17.3692L85.9839 9.86887C87.3007 7.23717 88.7491 4.07913 90.3292 0.394755C91.5143 0.394755 92.436 0.52634 92.9627 0.52634C93.4894 0.52634 94.5428 0.52634 96.1229 0.394755V1.31585H95.2012C94.2794 1.31585 93.7527 1.44743 93.6211 1.7106C93.4894 1.97377 93.3577 3.15804 93.3577 5.00023V15.7902C93.3577 18.1587 93.4894 19.6062 93.6211 20.0009C93.8844 20.3957 94.4111 20.5272 95.3328 20.5272H96.1229V21.4483C94.8061 21.4483 93.4894 21.3168 92.1726 21.3168C90.7242 21.3168 89.2758 21.3168 87.8274 21.4483V20.5272H88.7491C89.5391 20.5272 90.0658 20.3957 90.1975 20.0009C90.3292 19.6062 90.4609 18.1587 90.4609 15.6586V3.55279V3.68438ZM104.682 11.4479V15.1323V17.2376C104.682 18.5535 104.682 19.4746 104.682 20.1325C106.13 20.2641 107.71 20.2641 109.29 20.2641C110.344 20.2641 111.397 20.2641 112.056 20.1325C112.582 20.1325 113.109 20.0009 113.636 19.7377C113.899 18.8166 114.162 17.764 114.426 16.4481H115.347C115.084 18.6851 114.952 20.1325 114.952 20.7904V21.4483C113.767 21.5799 112.714 21.5799 111.529 21.5799H109.159C106.525 21.5799 104.682 21.4483 103.497 21.4483C102.312 21.4483 100.732 21.4483 98.8881 21.5799V20.6588H99.4148C100.337 20.6588 100.863 20.5272 100.995 20.3957C101.258 20.2641 101.39 19.8693 101.39 19.2114C101.522 18.5535 101.522 17.2376 101.522 15.1323V6.974C101.522 5.65815 101.522 4.60547 101.39 3.68438C101.258 2.89487 101.258 2.36853 101.127 2.10536C100.995 1.97377 100.995 1.84219 100.863 1.7106C100.732 1.57902 100.337 1.57902 99.5464 1.44743L98.3614 1.31585V0.394755H99.9415H101.522C102.443 0.394755 103.102 0.394755 103.497 0.394755L109.159 0.26317H111.924C112.846 0.26317 113.767 0.26317 114.689 0.394755C114.294 1.57902 114.031 3.15804 114.031 5.00023H113.109C113.109 3.94755 113.109 3.02645 112.977 2.23694C111.792 1.84219 110.344 1.57902 108.632 1.57902C107.315 1.57902 105.867 1.57902 104.418 1.7106C104.418 2.6317 104.418 3.55279 104.418 4.47389V6.71083V9.73728C105.472 9.73728 106.262 9.86887 107.052 9.86887C109.422 9.86887 110.739 9.73728 111.134 9.6057C111.397 9.47411 111.661 8.94777 111.661 8.02668V7.10559H112.582C112.451 8.55302 112.451 9.73728 112.451 10.6584C112.451 11.5795 112.451 12.7637 112.582 13.948H111.661V13.0269C111.661 12.1058 111.529 11.4479 111.134 11.3163C110.739 11.0531 109.422 11.0531 107.184 11.0531C106.394 11.0531 105.472 11.0531 104.55 11.1847L104.682 11.4479ZM124.301 20.1325C125.223 20.1325 126.277 20.2641 127.198 20.2641C129.042 20.2641 130.49 20.2641 131.544 20.1325C132.334 20.0009 132.992 19.8693 133.782 19.7377L134.704 16.1849H135.625C135.362 18.0271 135.23 19.8693 135.099 21.4483C134.177 21.5799 132.992 21.7115 131.412 21.7115L124.301 21.5799C123.38 21.5799 121.931 21.5799 119.824 21.7115V20.922C120.614 20.5272 121.141 20.2641 121.273 19.8693C121.405 19.4746 121.536 17.8955 121.536 15.1323V6.974C121.536 3.94755 121.405 2.36853 121.273 1.97377C121.141 1.57902 120.746 1.44743 120.088 1.44743H118.508V0.52634C120.878 0.52634 122.458 0.657925 123.248 0.657925C124.301 0.657925 125.618 0.657925 127.462 0.52634V1.44743H125.618C125.091 1.44743 124.696 1.57902 124.565 1.84219C124.433 2.10536 124.301 3.42121 124.301 5.65815V15.1323V19.343V20.2641V20.1325ZM144.053 20.1325C144.974 20.1325 146.028 20.2641 146.95 20.2641C148.793 20.2641 150.241 20.2641 151.295 20.1325C152.085 20.0009 152.743 19.8693 153.533 19.7377L154.455 16.1849H155.377C155.113 18.0271 154.982 19.8693 154.85 21.4483C153.928 21.5799 152.743 21.7115 151.163 21.7115L144.053 21.5799C143.131 21.5799 141.683 21.5799 139.576 21.7115V20.922C140.366 20.5272 140.892 20.2641 141.024 19.8693C141.156 19.4746 141.287 17.8955 141.287 15.1323V6.974C141.287 3.94755 141.156 2.36853 141.024 1.97377C140.892 1.57902 140.497 1.44743 139.839 1.44743H138.259V0.52634C140.629 0.52634 142.209 0.657925 142.999 0.657925C144.053 0.657925 145.369 0.657925 147.213 0.52634V1.44743H145.369C144.843 1.44743 144.448 1.57902 144.316 1.84219C144.184 2.10536 144.053 3.42121 144.053 5.65815V15.1323V19.343V20.2641V20.1325ZM172.758 14.4743H164.199L163.146 16.8429C162.487 18.4219 162.092 19.343 162.092 19.7377C162.092 20.0009 162.092 20.1325 162.224 20.2641C162.356 20.3957 162.619 20.3957 163.146 20.5272L164.594 20.6588V21.5799C163.672 21.5799 162.619 21.4483 161.434 21.4483C159.985 21.4483 158.8 21.4483 157.615 21.5799V20.6588H158.01C158.669 20.6588 159.195 20.5272 159.327 20.3957C159.59 20.2641 159.722 20.0009 159.985 19.4746C160.644 18.0271 161.434 16.4481 162.092 14.8691L166.174 5.65815C167.228 3.15804 168.018 1.44743 168.413 0.26317H169.466L176.971 17.764C177.498 18.9482 177.762 19.6062 178.025 19.8693C178.157 20.1325 178.42 20.2641 178.552 20.3957C178.815 20.5272 179.21 20.5272 180 20.6588V21.5799C178.683 21.5799 177.498 21.4483 176.313 21.4483C175.26 21.4483 173.811 21.4483 171.968 21.5799V20.6588L173.416 20.5272C173.943 20.5272 174.206 20.3957 174.338 20.3957C174.47 20.2641 174.601 20.1325 174.601 20.0009C174.601 19.8693 174.47 19.343 174.206 18.5535L172.626 14.4743H172.758ZM164.726 13.2901H172.231L168.544 4.3423L164.857 13.2901H164.726Z" fill="#A17550"/>
<path d="M7.50507 31.9748C7.90009 31.58 8.42679 31.1853 8.9535 30.9221C9.4802 30.6589 10.1386 30.5273 10.6653 30.5273C11.192 30.5273 11.7187 30.6589 12.2454 30.7905C12.7721 30.9221 13.1671 31.1853 13.5621 31.58L13.1671 31.9748C12.7721 31.7116 12.3771 31.4484 11.982 31.3169C11.587 31.1853 11.0603 31.0537 10.6653 31.0537C10.1386 31.0537 9.61187 31.1853 9.08517 31.3169C8.55847 31.58 8.16344 31.8432 7.76842 32.2379C7.37339 32.6327 7.11004 33.0275 6.84669 33.5538C6.58334 34.0801 6.58334 34.6065 6.58334 35.1328C6.58334 35.6592 6.71502 36.1855 6.84669 36.7118C7.11004 37.2382 7.37339 37.6329 7.76842 38.0277C8.16344 38.4224 8.55847 38.6856 9.08517 38.9488C9.61187 39.2119 10.1386 39.2119 10.6653 39.2119C11.192 39.2119 11.7187 39.0804 12.1137 38.9488C12.5087 38.8172 12.9038 38.6856 13.2988 38.4224V36.975H11.0603V36.4487H13.8255V38.8172L13.6938 38.9488C13.1671 39.2119 12.7721 39.4751 12.2454 39.6067C11.982 39.7383 11.7187 39.7383 11.4553 39.8699C11.192 39.8699 10.9286 39.8699 10.6653 39.8699C10.0069 39.8699 9.4802 39.7383 8.9535 39.4751C8.42679 39.2119 7.90009 38.9488 7.50507 38.4224C7.11004 38.0277 6.71502 37.5013 6.45167 36.975C6.18832 36.4487 6.05664 35.7907 6.05664 35.2644C6.05664 34.6065 6.18832 34.0801 6.45167 33.5538C6.71502 33.0275 6.97837 32.5011 7.50507 32.1064V31.9748ZM17.7757 31.3169V36.4487H21.1993V37.1066H17.7757V39.2119H21.4626V39.7383H17.249V30.7905H21.4626V31.3169H17.7757ZM25.2812 30.7905V39.2119H29.7582V39.7383H24.6228V30.7905H25.1495H25.2812ZM39.2388 39.7383C39.1071 39.4751 39.1071 39.2119 38.9754 38.9488C38.8438 38.6856 38.7121 38.4224 38.5804 38.1593C38.4487 37.8961 38.3171 37.5013 38.1854 37.1066H34.3668C34.2351 37.5013 34.1035 37.8961 33.9718 38.1593C33.8401 38.4224 33.7084 38.8172 33.7084 38.9488C33.5768 39.2119 33.4451 39.4751 33.4451 39.7383H32.7867L36.3419 30.5273L39.8972 39.7383H39.2388ZM37.922 36.4487C37.7904 36.0539 37.527 35.5276 37.3953 35.1328C37.2637 34.7381 37.0003 34.2117 36.8686 33.817C36.737 33.4222 36.6053 33.0275 36.4736 32.7643C36.3419 32.5011 36.2103 32.2379 36.2103 32.1064C36.2103 32.2379 36.0786 32.5011 35.9469 32.7643C35.8152 33.0275 35.6836 33.4222 35.5519 33.817C35.4202 34.2117 35.2885 34.6065 35.0252 35.1328C34.8935 35.5276 34.6302 36.0539 34.4985 36.4487H37.7904H37.922ZM47.1393 30.7905V31.3169H44.5058V39.6067H43.9791V31.3169H41.3456V30.7905H47.271H47.1393ZM50.9579 31.3169V36.4487H54.3814V37.1066H50.9579V39.2119H54.6448V39.7383H50.4312V30.7905H54.6448V31.3169H50.9579ZM62.282 36.1855C62.1503 36.3171 61.8869 36.4487 61.6236 36.5802C61.3602 36.7118 61.2285 36.8434 60.9652 36.8434L63.467 39.7383H62.677L60.3068 36.975H60.1751H60.0435H58.595V39.6067H58.0683V30.6589H60.0435C60.4385 30.6589 60.8335 30.7905 61.2285 30.9221C61.6236 31.0537 62.0186 31.3169 62.282 31.58C62.677 31.8432 62.9403 32.2379 63.072 32.6327C63.2037 33.0275 63.3354 33.4222 63.3354 33.9486C63.3354 34.3433 63.2037 34.8696 63.072 35.2644C62.9403 35.6592 62.677 36.0539 62.282 36.3171V36.1855ZM59.9118 36.4487C60.3068 36.4487 60.5702 36.4487 60.9652 36.3171C61.3602 36.1855 61.6236 36.0539 61.8869 35.7907C62.1503 35.5276 62.4136 35.2644 62.5453 35.0012C62.677 34.7381 62.8087 34.3433 62.8087 33.9486C62.8087 33.5538 62.677 33.159 62.5453 32.8959C62.4136 32.6327 62.1503 32.3695 61.8869 32.1064C61.6236 31.8432 61.3602 31.7116 60.9652 31.58C60.5702 31.4484 60.3068 31.4484 59.9118 31.4484H58.4634V36.4487H59.9118ZM66.6272 30.7905H67.1539V39.7383H66.6272V30.7905ZM76.8979 39.7383C76.7662 39.4751 76.7662 39.2119 76.6345 38.9488C76.5029 38.6856 76.3712 38.4224 76.2395 38.1593C76.1078 37.8961 75.9762 37.5013 75.8445 37.1066H72.0259C71.8942 37.5013 71.7626 37.8961 71.6309 38.1593C71.4992 38.4224 71.3675 38.8172 71.3675 38.9488C71.2359 39.2119 71.1042 39.4751 71.1042 39.7383H70.4458L74.001 30.5273L77.5563 39.7383H76.8979ZM75.5811 36.4487C75.4495 36.0539 75.1861 35.5276 75.0544 35.1328C74.9228 34.7381 74.6594 34.2117 74.5277 33.817C74.3961 33.4222 74.2644 33.0275 74.1327 32.7643C74.001 32.5011 73.8694 32.2379 73.8694 32.1064C73.8694 32.2379 73.7377 32.5011 73.606 32.7643C73.4743 33.0275 73.3427 33.4222 73.211 33.817C73.0793 34.2117 72.9476 34.6065 72.6843 35.1328C72.5526 35.5276 72.2893 36.0539 72.1576 36.4487H75.4495H75.5811ZM90.1971 39.7383C90.0654 39.4751 90.0654 39.2119 89.9337 38.9488C89.8021 38.6856 89.6704 38.4224 89.5387 38.1593C89.407 37.8961 89.2754 37.5013 89.1437 37.1066H85.3251C85.1934 37.5013 85.0618 37.8961 84.9301 38.1593C84.7984 38.4224 84.6667 38.8172 84.6667 38.9488C84.5351 39.2119 84.4034 39.4751 84.4034 39.7383H83.745L87.3002 30.5273L90.8555 39.7383H90.1971ZM88.8803 36.4487C88.7487 36.0539 88.4853 35.5276 88.3536 35.1328C88.222 34.7381 87.9586 34.2117 87.8269 33.817C87.6953 33.4222 87.5636 33.0275 87.4319 32.7643C87.3002 32.5011 87.1686 32.2379 87.1686 32.1064C87.1686 32.2379 87.0369 32.5011 86.9052 32.7643C86.7735 33.0275 86.6419 33.4222 86.5102 33.817C86.3785 34.2117 86.2468 34.6065 85.9835 35.1328C85.8518 35.5276 85.5885 36.0539 85.4568 36.4487H88.7487H88.8803ZM98.361 36.1855C98.2293 36.3171 97.9659 36.4487 97.7026 36.5802C97.4392 36.7118 97.3076 36.8434 97.0442 36.8434L99.546 39.7383H98.756L96.3858 36.975H96.2542H96.1225H94.674V39.6067H94.1473V30.6589H96.1225C96.5175 30.6589 96.9125 30.7905 97.3076 30.9221C97.7026 31.0537 98.0976 31.3169 98.361 31.58C98.756 31.8432 99.0193 32.2379 99.151 32.6327C99.2827 33.0275 99.4144 33.4222 99.4144 33.9486C99.4144 34.3433 99.2827 34.8696 99.151 35.2644C99.0193 35.6592 98.756 36.0539 98.361 36.3171V36.1855ZM95.9908 36.4487C96.3858 36.4487 96.6492 36.4487 97.0442 36.3171C97.4392 36.1855 97.7026 36.0539 97.9659 35.7907C98.2293 35.5276 98.4926 35.2644 98.6243 35.0012C98.756 34.7381 98.8877 34.3433 98.8877 33.9486C98.8877 33.5538 98.756 33.159 98.6243 32.8959C98.4926 32.6327 98.2293 32.3695 97.9659 32.1064C97.7026 31.8432 97.4392 31.7116 97.0442 31.58C96.6492 31.4484 96.3858 31.4484 95.9908 31.4484H94.5424V36.4487H95.9908ZM107.447 30.7905V31.3169H104.813V39.6067H104.286V31.3169H101.653V30.7905H107.578H107.447ZM110.738 30.7905H111.265V39.7383H110.738V30.7905ZM115.874 31.9748C116.269 31.58 116.795 31.1853 117.322 30.9221C117.849 30.6589 118.507 30.5273 119.034 30.5273C119.561 30.5273 120.087 30.6589 120.614 30.7905C121.141 30.9221 121.536 31.1853 121.931 31.58L121.536 31.9748C121.141 31.7116 120.746 31.4484 120.351 31.3169C119.956 31.1853 119.429 31.0537 119.034 31.0537C118.507 31.0537 117.981 31.1853 117.454 31.3169C116.927 31.58 116.532 31.8432 116.137 32.2379C115.742 32.6327 115.479 33.0275 115.215 33.5538C114.952 34.0801 114.952 34.6065 114.952 35.1328C114.952 35.6592 115.084 36.1855 115.215 36.7118C115.479 37.2382 115.742 37.6329 116.137 38.0277C116.532 38.4224 116.927 38.6856 117.454 38.9488C117.981 39.2119 118.507 39.2119 119.034 39.2119C119.561 39.2119 120.087 39.0804 120.482 38.9488C120.877 38.8172 121.272 38.6856 121.667 38.4224V36.975H119.429V36.4487H122.194V38.8172L122.062 38.9488C121.536 39.2119 121.141 39.4751 120.614 39.6067C120.351 39.7383 120.087 39.7383 119.824 39.8699C119.561 39.8699 119.297 39.8699 119.034 39.8699C118.376 39.8699 117.849 39.7383 117.322 39.4751C116.795 39.2119 116.269 38.9488 115.874 38.4224C115.479 38.0277 115.084 37.5013 114.82 36.975C114.557 36.4487 114.425 35.7907 114.425 35.2644C114.425 34.6065 114.557 34.0801 114.82 33.5538C115.084 33.0275 115.347 32.5011 115.874 32.1064V31.9748ZM125.618 30.7905H126.144V39.7383H125.618V30.7905ZM135.888 39.7383C135.757 39.4751 135.757 39.2119 135.625 38.9488C135.493 38.6856 135.362 38.4224 135.23 38.1593C135.098 37.8961 134.967 37.5013 134.835 37.1066H131.016C130.885 37.5013 130.753 37.8961 130.621 38.1593C130.49 38.4224 130.358 38.8172 130.358 38.9488C130.226 39.2119 130.095 39.4751 130.095 39.7383H129.436L132.992 30.5273L136.547 39.7383H135.888ZM134.572 36.4487C134.44 36.0539 134.177 35.5276 134.045 35.1328C133.913 34.7381 133.65 34.2117 133.518 33.817C133.387 33.4222 133.255 33.0275 133.123 32.7643C132.992 32.5011 132.86 32.2379 132.86 32.1064C132.86 32.2379 132.728 32.5011 132.597 32.7643C132.465 33.0275 132.333 33.4222 132.201 33.817C132.07 34.2117 131.938 34.6065 131.675 35.1328C131.543 35.5276 131.28 36.0539 131.148 36.4487H134.44H134.572ZM139.707 30.5273C140.892 31.8432 141.945 33.0275 142.867 34.0801C143.262 34.6065 143.657 35.0012 144.052 35.5276C144.447 36.0539 144.842 36.4487 145.237 36.8434C145.632 37.2382 145.896 37.6329 146.159 37.8961C146.422 38.1593 146.554 38.4224 146.686 38.554V30.9221H147.344V40.133C146.159 38.8172 145.106 37.6329 144.184 36.5802C143.789 36.1855 143.394 35.6592 142.999 35.1328C142.604 34.6065 142.209 34.2117 141.814 33.817C141.419 33.4222 141.155 33.0275 140.892 32.7643C140.629 32.5011 140.497 32.2379 140.365 32.1064V39.7383H139.839V30.5273H139.707ZM156.956 39.7383C156.825 39.4751 156.825 39.2119 156.693 38.9488C156.561 38.6856 156.43 38.4224 156.298 38.1593C156.166 37.8961 156.035 37.5013 155.903 37.1066H152.084C151.953 37.5013 151.821 37.8961 151.689 38.1593C151.558 38.4224 151.426 38.8172 151.426 38.9488C151.294 39.2119 151.163 39.4751 151.163 39.7383H150.504L154.06 30.5273L157.615 39.7383H156.956ZM155.64 36.4487C155.508 36.0539 155.245 35.5276 155.113 35.1328C154.981 34.7381 154.718 34.2117 154.586 33.817C154.455 33.4222 154.323 33.0275 154.191 32.7643C154.06 32.5011 153.928 32.2379 153.928 32.1064C153.928 32.2379 153.796 32.5011 153.665 32.7643C153.533 33.0275 153.401 33.4222 153.27 33.817C153.138 34.2117 153.006 34.6065 152.743 35.1328C152.611 35.5276 152.348 36.0539 152.216 36.4487H155.508H155.64ZM161.433 30.7905V39.2119H165.91V39.7383H160.775V30.7905H161.302H161.433ZM169.861 31.3169V36.4487H173.284V37.1066H169.861V39.2119H173.548V39.7383H169.334V30.7905H173.548V31.3169H169.861Z" fill="#A1754F"/>
</svg>
