<svg width="171" height="300" viewBox="0 0 171 300" fill="none" xmlns="http://www.w3.org/2000/svg">
<path d="M105.176 300H57.1337C53.2754 299.996 49.5763 298.461 46.8481 295.733C44.1199 293.005 42.5853 289.306 42.581 285.447V177.085H14.5527C10.6949 177.08 6.99642 175.546 4.26837 172.818C1.54031 170.09 0.00531665 166.392 0 162.534V116.1C0.0042545 112.241 1.53884 108.542 4.26707 105.814C6.9953 103.086 10.6944 101.551 14.5527 101.547H42.581V78.2946C42.581 55.239 49.8141 35.6232 63.5149 21.5728C77.2719 7.45816 96.4959 0 119.11 0L155.749 0.0602761C159.603 0.0724921 163.294 1.61047 166.017 4.33772C168.739 7.06497 170.271 10.7595 170.276 14.6129V57.7244C170.272 61.5821 168.738 65.2809 166.011 68.0091C163.283 70.7374 159.585 72.2722 155.727 72.277H131.058C123.536 72.277 121.615 73.7859 121.213 74.248C120.538 75.0156 119.734 77.1815 119.734 83.1669V101.545H153.873C156.39 101.532 158.868 102.161 161.074 103.373C163.34 104.638 165.228 106.484 166.544 108.722C167.86 110.959 168.556 113.506 168.56 116.102L168.542 162.544C168.537 166.402 167.002 170.101 164.274 172.828C161.546 175.555 157.847 177.089 153.989 177.093H119.73V285.447C119.726 289.306 118.191 293.005 115.462 295.733C112.733 298.461 109.034 299.996 105.176 300ZM60.1696 282.413H102.142V169.213C102.145 166.637 103.17 164.167 104.991 162.346C106.813 160.524 109.282 159.5 111.858 159.496H150.955L150.971 119.136H111.856C109.28 119.132 106.811 118.108 104.99 116.286C103.169 114.465 102.144 111.995 102.142 109.419V83.181C102.142 76.3095 102.839 68.4957 108.027 62.6228C114.293 55.5223 124.171 54.7025 131.054 54.7025H152.687V17.6428L119.093 17.5886C82.751 17.5886 60.1676 40.8531 60.1676 78.2966V109.419C60.1649 111.995 59.1406 114.465 57.3194 116.286C55.4983 118.108 53.0289 119.132 50.4531 119.136H17.5886V159.496H50.4551C53.0309 159.5 55.5003 160.524 57.3214 162.346C59.1426 164.168 60.1669 166.637 60.1696 169.213V282.413Z" fill="black"/>
</svg>
