<svg width="302" height="300" viewBox="0 0 302 300" fill="none" xmlns="http://www.w3.org/2000/svg">
<path d="M301.852 150.906C301.848 122.064 293.58 93.8272 278.027 69.5383C262.474 45.2494 240.287 25.9256 214.093 13.8545C187.898 1.78338 158.794 -2.52946 130.225 1.42655C101.655 5.38257 74.8179 17.4418 52.8893 36.1765C30.9608 54.9112 14.8595 79.5369 6.49166 107.138C-1.87616 134.739 -2.16012 164.16 5.67342 191.918C13.507 219.676 29.1299 244.608 50.6928 263.762C72.2557 282.916 98.8554 295.491 127.343 299.998V194.534H89.0174V150.902H127.343V117.655C127.343 79.8287 149.876 58.9423 184.356 58.9423C195.674 59.0999 206.966 60.0852 218.141 61.8904V99.0367H199.096C180.348 99.0367 174.499 110.67 174.499 122.606V150.908H216.362L209.68 194.54H174.509V300C210.009 294.376 242.337 276.271 265.68 248.941C289.023 221.61 301.85 186.848 301.852 150.906Z" fill="#A17550"/>
</svg>
