<svg width="301" height="301" viewBox="0 0 301 301" fill="none" xmlns="http://www.w3.org/2000/svg">
<path d="M300.534 150.036C300.534 171.078 300.11 192.182 300.654 213.224C301.562 250.472 278.16 279.254 248.35 292.072C236.502 297.229 223.722 299.905 210.8 299.932C170.106 299.992 129.352 300.532 88.6579 299.75C58.0019 299.15 32.7859 286.326 14.7079 261.052C5.38948 247.989 0.475807 232.297 0.67994 216.252V86.2519C0.67994 50.8619 17.9119 26.1399 48.5099 10.0619C61.7624 3.3207 76.4526 -0.104601 91.3199 0.0799404C130.804 0.0799404 170.35 -0.162061 209.834 0.199939C240.49 0.441939 266.068 12.1719 284.934 36.8419C295.268 50.3271 300.763 66.8979 300.534 83.8859V150.036ZM22.9919 150.036V216.55C22.8363 226.276 25.4134 235.85 30.4299 244.184C43.9139 266.262 64.2899 277.016 89.5659 277.44C130.14 278.04 170.766 277.682 211.406 277.56C221.315 277.619 231.111 275.45 240.068 271.212C264.618 259.482 278.344 240.798 278.222 212.74C277.98 169.808 278.162 126.878 278.162 83.9399C278.314 72.0489 274.577 60.4336 267.52 50.8619C253.612 32.0619 234.384 22.8059 211.406 22.5639C170.894 22.0799 130.38 22.3819 89.8679 22.4439C81.2842 22.5142 72.7834 24.1321 64.7739 27.2199C42.5219 35.5139 21.8439 56.4959 22.8099 87.3939C23.5359 108.314 22.9919 129.176 22.9919 150.036Z" fill="#A17550"/>
<path d="M150.94 214.13C141.725 214.191 132.589 212.433 124.054 208.957C115.52 205.481 107.756 200.355 101.206 193.873C94.6568 187.391 89.4507 179.68 85.8865 171.182C82.3222 162.684 80.4699 153.567 80.4356 144.352C80.3756 106.258 112.06 75.058 150.818 75.058C160.019 74.94 169.153 76.6494 177.689 80.0872C186.225 83.5251 193.994 88.6229 200.545 95.0853C207.097 101.548 212.3 109.246 215.855 117.734C219.409 126.223 221.243 135.332 221.251 144.534C221.259 153.737 219.441 162.849 215.901 171.343C212.361 179.838 207.171 187.545 200.631 194.019C194.09 200.493 186.33 205.604 177.8 209.056C169.27 212.509 160.139 214.234 150.938 214.132L150.94 214.13ZM150.94 191.758C157.201 191.858 163.419 190.711 169.232 188.384C175.045 186.057 180.338 182.597 184.801 178.204C189.263 173.812 192.808 168.576 195.227 162.8C197.646 157.025 198.892 150.826 198.892 144.564C198.892 138.302 197.646 132.103 195.227 126.328C192.808 120.552 189.263 115.316 184.801 110.923C180.338 106.531 175.045 103.071 169.232 100.744C163.419 98.4171 157.201 97.2701 150.94 97.37C124.396 97.37 102.74 118.472 102.74 144.534C102.874 157.186 108.027 169.268 117.065 178.123C126.103 186.978 138.287 191.882 150.94 191.758V191.758Z" fill="#A17550"/>
<path d="M229.485 53.8959C232.559 53.7601 235.603 54.546 238.227 56.1528C240.851 57.7596 242.935 60.1139 244.212 62.9136C245.488 65.7133 245.899 68.8306 245.391 71.8652C244.883 74.8999 243.479 77.7136 241.361 79.945C239.242 82.1764 236.505 83.7237 233.501 84.3884C230.497 85.0531 227.362 84.8047 224.5 83.6752C221.638 82.5458 219.179 80.5867 217.438 78.0495C215.697 75.5123 214.755 72.5127 214.731 69.4359C214.635 65.421 216.134 61.5318 218.899 58.6193C221.664 55.7069 225.47 54.0085 229.485 53.8959V53.8959Z" fill="#A17550"/>
</svg>
