<svg width="301" height="300" viewBox="0 0 301 300" fill="none" xmlns="http://www.w3.org/2000/svg">
<path d="M256.103 43.5654C227.92 15.4884 190.43 0.0160218 150.529 0C110.717 0 73.1666 15.4587 44.799 43.5287C16.381 71.6469 0.716309 109.014 0.679688 148.611V148.656V148.684C0.684265 172.65 6.9808 196.827 18.933 218.896L1.08939 300L83.1275 281.339C103.905 291.811 127.089 297.331 150.471 297.34H150.531C190.336 297.34 227.886 281.879 256.258 253.807C284.701 225.666 300.373 188.347 300.391 148.725C300.403 109.383 284.676 72.036 256.103 43.5654V43.5654ZM150.529 273.926H150.476C129.481 273.917 108.678 268.645 90.319 258.678L86.4394 256.572L31.8877 268.98L43.7369 215.128L41.4527 211.189C30.0956 191.604 24.0943 169.984 24.0943 148.659C24.1378 79.6349 80.8501 23.4146 150.524 23.4146C184.183 23.4283 215.81 36.4769 239.577 60.1524C263.704 84.1942 276.986 115.647 276.974 148.718C276.947 217.758 220.223 273.926 150.529 273.926V273.926Z" fill="#A17550"/>
<path d="M109.753 83.123H103.184C100.898 83.123 97.1851 83.9791 94.0449 87.3963C90.9023 90.8158 82.0469 99.0807 82.0469 115.89C82.0469 132.699 94.331 148.94 96.043 151.222C97.7573 153.502 119.755 189.098 154.596 202.792C183.551 214.172 189.445 211.908 195.728 211.338C202.013 210.77 216.009 203.075 218.866 195.099C221.722 187.122 221.722 180.283 220.866 178.855C220.008 177.432 217.721 176.578 214.295 174.87C210.866 173.161 194.066 164.756 190.924 163.614C187.781 162.476 185.497 161.906 183.21 165.328C180.924 168.743 174.192 176.644 172.192 178.924C170.194 181.206 168.193 181.492 164.765 179.782C161.336 178.068 150.409 174.397 137.315 162.76C127.123 153.703 120.05 142.154 118.05 138.734C116.052 135.317 117.837 133.468 119.556 131.763C121.096 130.234 123.177 128.142 124.891 126.148C126.603 124.152 127.091 122.729 128.235 120.449C129.377 118.169 128.805 116.174 127.949 114.466C127.091 112.756 120.513 95.8626 117.464 89.106H117.466C114.898 83.416 112.195 83.2238 109.753 83.123V83.123Z" fill="#A17550"/>
</svg>
