<svg width="60" height="60" viewBox="0 0 60 60" fill="none" xmlns="http://www.w3.org/2000/svg">
<circle cx="30" cy="30" r="30" fill="#F9F2E4"/>
<path d="M29.8958 20C32.5204 20 35.0374 21.0426 36.8932 22.8984C38.7491 24.7543 39.7917 27.2713 39.7917 29.8958C39.7917 32.5204 38.7491 35.0374 36.8932 36.8932C35.0374 38.7491 32.5204 39.7917 29.8958 39.7917C27.2713 39.7917 24.7543 38.7491 22.8984 36.8932C21.0426 35.0374 20 32.5204 20 29.8958C20 27.2713 21.0426 24.7543 22.8984 22.8984C24.7543 21.0426 27.2713 20 29.8958 20ZM29.8958 21.0417C27.5476 21.0417 25.2955 21.9745 23.635 23.635C21.9745 25.2955 21.0417 27.5476 21.0417 29.8958C21.0417 32.2441 21.9745 34.4962 23.635 36.1567C25.2955 37.8172 27.5476 38.75 29.8958 38.75C32.2441 38.75 34.4962 37.8172 36.1567 36.1567C37.8172 34.4962 38.75 32.2441 38.75 29.8958C38.75 27.5476 37.8172 25.2955 36.1567 23.635C34.4962 21.9745 32.2441 21.0417 29.8958 21.0417ZM29.375 24.1667H30.4167V29.8156L35.3083 32.6396L34.7875 33.5417L29.375 30.4167V24.1667Z" fill="#A17550"/>
</svg>
