<svg width="50" height="26" viewBox="0 0 50 26" fill="none" xmlns="http://www.w3.org/2000/svg">
<g clip-path="url(#clip0_514_380)">
<path d="M0 14.9263H3.73488L5.81031 4.57688H2.07493L0 14.9263ZM2.28072 3.34249H6.03124L6.64761 0.245994H2.89855L2.28072 3.34249ZM5.18758 17.8386H8.92295L11.2051 6.65705H14.0064L14.4194 4.57688H11.6719L11.776 4.1089C11.9315 3.22685 12.2428 2.2365 13.6432 2.2365C14.4742 2.2365 15.2519 2.28844 16.0295 2.65253L16.445 0.468468C15.5783 0.161893 14.6664 0.00353109 13.7474 0C10.7383 0 8.66389 1.76852 7.88524 4.57688H6.58847L6.17348 6.65705H7.47025L5.18758 17.8386Z" fill="#A17550"/>
<path d="M17.0157 15.1345C21.4251 15.1345 24.4859 11.1295 24.4859 7.8532C24.4859 5.40893 22.255 4.3686 20.0765 4.3686C15.2506 4.3686 12.6062 8.68772 12.6062 11.6499C12.6062 14.0942 14.8889 15.1345 17.0157 15.1345ZM28.8445 15.1345C33.2539 15.1345 36.3147 11.1295 36.3147 7.8532C36.3147 5.40893 34.0321 4.3686 31.853 4.3686C27.0286 4.3686 24.3833 8.68527 24.3833 11.6499C24.3833 14.0942 26.7177 15.1345 28.8445 15.1345ZM42.3841 14.9263H46.0672L49.0752 0.210205H45.3403L44.4581 4.57882L42.9017 4.42299C39.2705 4.42299 35.9506 9.10326 35.9506 12.432C35.9506 13.784 36.8304 15.1365 38.3369 15.1365C40.4636 15.1365 41.9681 14.0962 42.5894 13.0558H42.7966L42.3841 14.9263ZM30.8666 22.6756C27.9675 25.0838 24.2439 26.2596 20.4915 25.952C15.563 25.6398 12.0353 21.8431 11.4131 17.8385H11.6203C12.7617 20.3377 15.5111 22.6756 18.8833 23.0392C22.3049 23.4553 26.4054 21.8955 28.6358 19.7629L26.1459 17.8385H33.6679L32.006 25.8481L30.9165 22.7276L30.8666 22.6756Z" fill="#A17550"/>
</g>
<defs>
<clipPath id="clip0_514_380">
<rect width="49.075" height="26" fill="white"/>
</clipPath>
</defs>
</svg>
