<svg width="220" height="50" viewBox="0 0 220 50" fill="none" xmlns="http://www.w3.org/2000/svg">
<path d="M22.0483 7.23717L21.8873 4.02065C20.7608 3.37735 19.6342 2.73404 18.5077 2.41239C17.3811 2.09074 16.0936 1.92991 14.8061 1.92991C11.5874 1.92991 8.8515 2.89487 6.92026 4.82478C4.98903 6.75469 4.02341 9.48873 4.02341 12.8661C4.02341 15.2785 4.50622 17.2084 5.47184 19.1383C6.43745 20.9074 7.88588 22.3548 9.65618 23.4806C11.4265 24.6064 13.3577 25.0889 15.4499 25.0889C17.0593 25.0889 18.6686 24.928 20.278 24.4456C21.4045 24.1239 22.692 23.6414 23.8186 22.6765L24.1405 22.9981C23.8186 23.4806 23.6576 24.1239 23.4967 24.6064C22.0483 25.2497 20.5999 25.893 19.1514 26.2146C17.703 26.5363 16.2546 26.6971 14.8061 26.6971C11.9093 26.6971 9.17337 26.0538 6.92026 24.928C4.66715 23.8022 2.89685 22.194 1.7703 20.1033C0.482809 18.0125 0 15.7609 0 13.1877C0 10.6145 0.643745 8.36295 1.7703 6.27221C3.05779 4.18148 4.66715 2.73404 6.92026 1.60826C9.17337 0.482478 11.9093 0 15.128 0C16.8983 0 18.8296 0.321652 21.0827 0.80413C22.2092 1.12578 23.1748 1.28661 23.8186 1.44743C23.3358 2.73404 23.0139 4.50313 22.853 6.91552H21.5655L22.0483 7.23717ZM45.545 17.6909H35.0841L33.7966 20.5857C32.992 22.5156 32.5091 23.6414 32.5091 24.1239C32.5091 24.4456 32.5091 24.6064 32.6701 24.7672C32.831 24.928 33.1529 24.928 33.7966 25.0889L35.5669 25.2497V26.3755C34.4404 26.3755 33.1529 26.2146 31.7045 26.2146C29.9342 26.2146 28.4857 26.2146 27.0373 26.3755V25.2497H27.5201C28.3248 25.2497 28.9685 25.0889 29.1295 24.928C29.4514 24.7672 29.6123 24.4456 29.9342 23.8022C30.7388 22.0332 31.7045 20.1033 32.5091 18.1733L37.4982 6.91552C38.7857 3.85982 39.7513 1.76909 40.2341 0.321652H41.5216L50.695 21.7115C51.3387 23.1589 51.6606 23.9631 51.9824 24.2847C52.1434 24.6064 52.4653 24.7672 52.6262 24.928C52.9481 25.0889 53.4309 25.0889 54.3965 25.2497V26.3755C52.7871 26.3755 51.3387 26.2146 49.8903 26.2146C48.6028 26.2146 46.8325 26.2146 44.5794 26.3755V25.2497L46.3497 25.0889C46.9934 25.0889 47.3153 24.928 47.4762 24.928C47.6372 24.7672 47.7981 24.6064 47.7981 24.4456C47.7981 24.2847 47.6372 23.6414 47.3153 22.6765L45.3841 17.6909H45.545ZM35.7279 16.2434H44.9012L40.395 5.30726L35.8888 16.2434H35.7279ZM71.1339 13.3486C72.2604 15.1176 73.8698 17.0476 75.4791 19.2991L79.0198 23.8022C79.6635 24.6064 79.9854 25.0889 80.3072 25.0889C80.4682 25.2497 80.7901 25.2497 80.951 25.2497H81.4338V26.3755C80.4682 26.3755 79.5026 26.2146 78.8588 26.2146C78.2151 26.2146 77.4104 26.2146 76.6057 26.3755L70.1683 17.6909C69.0417 16.0826 67.7542 14.4743 66.3058 13.0269L66.4667 12.3836C67.1105 12.3836 67.7542 12.5444 68.0761 12.5444C70.1683 12.5444 71.6167 12.0619 72.9042 10.9362C74.0307 9.97121 74.6745 8.52378 74.6745 6.75469C74.6745 5.14643 74.1917 4.02065 73.226 3.05569C72.2604 2.25156 70.812 1.76909 69.0417 1.76909C67.7542 1.76909 66.4667 1.92991 65.1792 2.41239C65.0183 4.3423 65.0183 6.43304 65.0183 8.52378V17.2084C65.0183 21.3899 65.1792 23.8022 65.3402 24.2847C65.5011 24.7672 66.1448 24.928 67.2714 24.928H68.7198V26.0538C66.7886 26.0538 65.0183 25.893 63.7308 25.893C62.7652 25.893 60.8339 25.893 58.098 26.0538V24.928H59.3855C60.3511 24.928 60.9949 24.7672 61.1558 24.2847C61.3167 23.8022 61.4777 21.3899 61.4777 17.2084V8.52378C61.4777 4.82478 61.3167 2.73404 61.1558 2.25156C60.9949 1.76909 60.1902 1.60826 58.9027 1.60826H57.9371V0.482478C60.1902 0.482478 61.9605 0.643304 63.0871 0.643304C63.8917 0.643304 65.0183 0.643304 66.4667 0.482478C68.237 0.482478 69.5245 0.321652 70.1683 0.321652C72.2604 0.321652 73.8698 0.482478 74.9963 0.964956C76.1229 1.44743 76.9276 2.09074 77.4104 2.89487C78.0541 3.699 78.2151 4.66395 78.2151 5.95056C78.2151 7.71965 77.5713 9.16708 76.4448 10.4537C75.1573 11.7403 73.387 12.7053 71.1339 13.1877V13.3486ZM110.563 4.50313L105.091 15.7609C102.999 19.9424 101.39 23.6414 100.102 26.8579H99.2977C98.8149 25.7322 97.5274 22.9981 95.4353 18.6558L88.9978 5.30726V19.1383C88.9978 22.3548 89.1587 24.2847 89.3197 24.6064C89.6415 25.0889 90.4462 25.2497 91.7337 25.2497H92.3775V26.3755C90.7681 26.3755 89.3197 26.2146 88.3541 26.2146C87.5494 26.2146 86.101 26.2146 83.8478 26.3755V25.2497H84.9744C85.7791 25.2497 86.2619 25.0889 86.5838 24.928C86.9056 24.7672 87.0666 24.2847 87.0666 23.6414C87.2275 21.8723 87.2275 20.1033 87.2275 18.1733V7.88047C87.2275 5.46808 87.2275 3.699 87.0666 3.05569C87.0666 2.57322 86.9056 2.25156 86.5838 2.09074C86.2619 1.92991 85.6181 1.76909 84.8135 1.76909H83.8478V0.643304C85.94 0.643304 87.2275 0.80413 87.8712 0.80413C88.515 0.80413 89.4806 0.80413 90.7681 0.643304C92.2165 3.85982 93.9868 7.55882 95.7571 11.4186L100.585 21.229L105.091 12.0619C106.701 8.84543 108.471 4.98561 110.402 0.482478C111.851 0.482478 112.977 0.643304 113.621 0.643304C114.265 0.643304 115.552 0.643304 117.484 0.482478V1.60826H116.357C115.23 1.60826 114.587 1.76909 114.426 2.09074C114.265 2.41239 114.104 3.85982 114.104 6.11139V19.2991C114.104 22.194 114.265 23.9631 114.426 24.4456C114.748 24.928 115.391 25.0889 116.518 25.0889H117.484V26.2146C115.874 26.2146 114.265 26.0538 112.655 26.0538C110.885 26.0538 109.115 26.0538 107.345 26.2146V25.0889H108.471C109.437 25.0889 110.08 24.928 110.241 24.4456C110.402 23.9631 110.563 22.194 110.563 19.1383V4.3423V4.50313ZM127.944 13.9919V18.495V21.0682C127.944 22.6765 127.944 23.8022 127.944 24.6064C129.715 24.7672 131.646 24.7672 133.577 24.7672C134.865 24.7672 136.152 24.7672 136.957 24.6064C137.601 24.6064 138.244 24.4456 138.888 24.1239C139.21 22.9981 139.532 21.7115 139.854 20.1033H140.98C140.658 22.8373 140.497 24.6064 140.497 25.4105V26.2146C139.049 26.3755 137.762 26.3755 136.313 26.3755H133.416C130.198 26.3755 127.944 26.2146 126.496 26.2146C125.048 26.2146 123.116 26.2146 120.863 26.3755V25.2497H121.507C122.633 25.2497 123.277 25.0889 123.438 24.928C123.76 24.7672 123.921 24.2847 123.921 23.4806C124.082 22.6765 124.082 21.0682 124.082 18.495V8.52378C124.082 6.91552 124.082 5.62891 123.921 4.50313C123.76 3.53817 123.76 2.89487 123.599 2.57322C123.438 2.41239 123.438 2.25156 123.277 2.09074C123.116 1.92991 122.633 1.92991 121.668 1.76909L120.219 1.60826V0.482478H122.151H124.082C125.208 0.482478 126.013 0.482478 126.496 0.482478L133.416 0.321652H136.796C137.922 0.321652 139.049 0.321652 140.176 0.482478C139.693 1.92991 139.371 3.85982 139.371 6.11139H138.244C138.244 4.82478 138.244 3.699 138.083 2.73404C136.635 2.25156 134.865 1.92991 132.772 1.92991C131.163 1.92991 129.393 1.92991 127.623 2.09074C127.623 3.21652 127.623 4.3423 127.623 5.46808V8.20213V11.9011C128.91 11.9011 129.876 12.0619 130.841 12.0619C133.738 12.0619 135.347 11.9011 135.83 11.7403C136.152 11.5795 136.474 10.9362 136.474 9.81039V8.6846H137.601C137.44 10.4537 137.44 11.9011 137.44 13.0269C137.44 14.1527 137.44 15.6001 137.601 17.0476H136.474V15.9218C136.474 14.796 136.313 13.9919 135.83 13.831C135.347 13.5094 133.738 13.5094 131.002 13.5094C130.037 13.5094 128.91 13.5094 127.783 13.6702L127.944 13.9919ZM151.924 24.6064C153.05 24.6064 154.338 24.7672 155.465 24.7672C157.718 24.7672 159.488 24.7672 160.775 24.6064C161.741 24.4456 162.546 24.2847 163.511 24.1239L164.638 19.7816H165.764C165.443 22.0332 165.282 24.2847 165.121 26.2146C163.994 26.3755 162.546 26.5363 160.614 26.5363L151.924 26.3755C150.797 26.3755 149.027 26.3755 146.452 26.5363V25.5713C147.418 25.0889 148.061 24.7672 148.222 24.2847C148.383 23.8022 148.544 21.8723 148.544 18.495V8.52378C148.544 4.82478 148.383 2.89487 148.222 2.41239C148.061 1.92991 147.579 1.76909 146.774 1.76909H144.843V0.643304C147.74 0.643304 149.671 0.80413 150.636 0.80413C151.924 0.80413 153.533 0.80413 155.786 0.643304V1.76909H153.533C152.89 1.76909 152.407 1.92991 152.246 2.25156C152.085 2.57322 151.924 4.18148 151.924 6.91552V18.495V23.6414V24.7672V24.6064ZM176.064 24.6064C177.191 24.6064 178.478 24.7672 179.605 24.7672C181.858 24.7672 183.628 24.7672 184.916 24.6064C185.881 24.4456 186.686 24.2847 187.652 24.1239L188.778 19.7816H189.905C189.583 22.0332 189.422 24.2847 189.261 26.2146C188.135 26.3755 186.686 26.5363 184.755 26.5363L176.064 26.3755C174.938 26.3755 173.168 26.3755 170.593 26.5363V25.5713C171.558 25.0889 172.202 24.7672 172.363 24.2847C172.524 23.8022 172.685 21.8723 172.685 18.495V8.52378C172.685 4.82478 172.524 2.89487 172.363 2.41239C172.202 1.92991 171.719 1.76909 170.914 1.76909H168.983V0.643304C171.88 0.643304 173.811 0.80413 174.777 0.80413C176.064 0.80413 177.674 0.80413 179.927 0.643304V1.76909H177.674C177.03 1.76909 176.547 1.92991 176.386 2.25156C176.225 2.57322 176.064 4.18148 176.064 6.91552V18.495V23.6414V24.7672V24.6064ZM211.148 17.6909H200.688L199.4 20.5857C198.595 22.5156 198.113 23.6414 198.113 24.1239C198.113 24.4456 198.113 24.6064 198.274 24.7672C198.435 24.928 198.756 24.928 199.4 25.0889L201.17 25.2497V26.3755C200.044 26.3755 198.756 26.2146 197.308 26.2146C195.538 26.2146 194.089 26.2146 192.641 26.3755V25.2497H193.124C193.928 25.2497 194.572 25.0889 194.733 24.928C195.055 24.7672 195.216 24.4456 195.538 23.8022C196.342 22.0332 197.308 20.1033 198.113 18.1733L203.102 6.91552C204.389 3.85982 205.355 1.76909 205.838 0.321652H207.125L216.298 21.7115C216.942 23.1589 217.264 23.9631 217.586 24.2847C217.747 24.6064 218.069 24.7672 218.23 24.928C218.552 25.0889 219.034 25.0889 220 25.2497V26.3755C218.391 26.3755 216.942 26.2146 215.494 26.2146C214.206 26.2146 212.436 26.2146 210.183 26.3755V25.2497L211.953 25.0889C212.597 25.0889 212.919 24.928 213.08 24.928C213.241 24.7672 213.402 24.6064 213.402 24.4456C213.402 24.2847 213.241 23.6414 212.919 22.6765L210.988 17.6909H211.148ZM201.331 16.2434H210.505L205.999 5.30726L201.492 16.2434H201.331Z" fill="#BA7D22"/>
<path d="M9.17264 39.0807C9.65545 38.5983 10.2992 38.1158 10.9429 37.7941C11.5867 37.4725 12.3914 37.3116 13.0351 37.3116C13.6789 37.3116 14.3226 37.4725 14.9664 37.6333C15.6101 37.7941 16.0929 38.1158 16.5757 38.5983L16.0929 39.0807C15.6101 38.7591 15.1273 38.4374 14.6445 38.2766C14.1617 38.1158 13.5179 37.9549 13.0351 37.9549C12.3914 37.9549 11.7476 38.1158 11.1039 38.2766C10.4601 38.5983 9.97733 38.9199 9.49452 39.4024C9.01171 39.8849 8.68983 40.3673 8.36796 41.0106C8.04609 41.6539 8.04609 42.2973 8.04609 42.9406C8.04609 43.5839 8.20703 44.2272 8.36796 44.8705C8.68983 45.5138 9.01171 45.9962 9.49452 46.4787C9.97733 46.9612 10.4601 47.2829 11.1039 47.6045C11.7476 47.9262 12.3914 47.9262 13.0351 47.9262C13.6789 47.9262 14.3226 47.7653 14.8054 47.6045C15.2882 47.4437 15.771 47.2829 16.2538 46.9612V45.1921H13.5179V44.5488H16.8976V47.4437L16.7367 47.6045C16.0929 47.9262 15.6101 48.2478 14.9664 48.4086C14.6445 48.5695 14.3226 48.5695 14.0007 48.7303C13.6789 48.7303 13.357 48.7303 13.0351 48.7303C12.2304 48.7303 11.5867 48.5695 10.9429 48.2478C10.2992 47.9262 9.65545 47.6045 9.17264 46.9612C8.68983 46.4787 8.20703 45.8354 7.88515 45.1921C7.56328 44.5488 7.40234 43.7447 7.40234 43.1014C7.40234 42.2973 7.56328 41.6539 7.88515 41.0106C8.20703 40.3673 8.5289 39.724 9.17264 39.2416V39.0807ZM21.7257 38.2766V44.5488H25.91V45.3529H21.7257V47.9262H26.2319V48.5695H21.0819V37.6333H26.2319V38.2766H21.7257ZM30.8991 37.6333V47.9262H36.3709V48.5695H30.0944V37.6333H30.7381H30.8991ZM47.9583 48.5695C47.7974 48.2478 47.7974 47.9262 47.6364 47.6045C47.4755 47.2829 47.3146 46.9612 47.1536 46.6396C46.9927 46.3179 46.8318 45.8354 46.6708 45.3529H42.0037C41.8427 45.8354 41.6818 46.3179 41.5209 46.6396C41.3599 46.9612 41.199 47.4437 41.199 47.6045C41.038 47.9262 40.8771 48.2478 40.8771 48.5695H40.0724L44.4177 37.3116L48.763 48.5695H47.9583ZM46.3489 44.5488C46.188 44.0663 45.8661 43.423 45.7052 42.9406C45.5443 42.4581 45.2224 41.8148 45.0615 41.3323C44.9005 40.8498 44.7396 40.3673 44.5786 40.0457C44.4177 39.724 44.2568 39.4024 44.2568 39.2416C44.2568 39.4024 44.0958 39.724 43.9349 40.0457C43.774 40.3673 43.613 40.8498 43.4521 41.3323C43.2912 41.8148 43.1302 42.2973 42.8083 42.9406C42.6474 43.423 42.3255 44.0663 42.1646 44.5488H46.188H46.3489ZM57.6145 37.6333V38.2766H54.3958V48.4086H53.752V38.2766H50.5333V37.6333H57.7754H57.6145ZM62.2816 38.2766V44.5488H66.466V45.3529H62.2816V47.9262H66.7879V48.5695H61.6379V37.6333H66.7879V38.2766H62.2816ZM76.1222 44.2272C75.9612 44.388 75.6394 44.5488 75.3175 44.7096C74.9956 44.8705 74.8347 45.0313 74.5128 45.0313L77.5706 48.5695H76.605L73.7081 45.1921H73.5472H73.3863H71.616V48.4086H70.9722V37.4725H73.3863C73.8691 37.4725 74.3519 37.6333 74.8347 37.7941C75.3175 37.9549 75.8003 38.2766 76.1222 38.5983C76.605 38.9199 76.9269 39.4024 77.0878 39.8849C77.2487 40.3673 77.4097 40.8498 77.4097 41.4931C77.4097 41.9756 77.2487 42.6189 77.0878 43.1014C76.9269 43.5839 76.605 44.0663 76.1222 44.388V44.2272ZM73.2253 44.5488C73.7081 44.5488 74.03 44.5488 74.5128 44.388C74.9956 44.2272 75.3175 44.0663 75.6394 43.7447C75.9612 43.423 76.2831 43.1014 76.444 42.7797C76.605 42.4581 76.7659 41.9756 76.7659 41.4931C76.7659 41.0106 76.605 40.5282 76.444 40.2065C76.2831 39.8849 75.9612 39.5632 75.6394 39.2416C75.3175 38.9199 74.9956 38.7591 74.5128 38.5983C74.03 38.4374 73.7081 38.4374 73.2253 38.4374H71.455V44.5488H73.2253ZM81.4331 37.6333H82.0768V48.5695H81.4331V37.6333ZM93.9861 48.5695C93.8252 48.2478 93.8252 47.9262 93.6642 47.6045C93.5033 47.2829 93.3424 46.9612 93.1814 46.6396C93.0205 46.3179 92.8596 45.8354 92.6986 45.3529H88.0315C87.8705 45.8354 87.7096 46.3179 87.5487 46.6396C87.3877 46.9612 87.2268 47.4437 87.2268 47.6045C87.0658 47.9262 86.9049 48.2478 86.9049 48.5695H86.1002L90.4455 37.3116L94.7908 48.5695H93.9861ZM92.3767 44.5488C92.2158 44.0663 91.8939 43.423 91.733 42.9406C91.5721 42.4581 91.2502 41.8148 91.0893 41.3323C90.9283 40.8498 90.7674 40.3673 90.6064 40.0457C90.4455 39.724 90.2846 39.4024 90.2846 39.2416C90.2846 39.4024 90.1236 39.724 89.9627 40.0457C89.8018 40.3673 89.6408 40.8498 89.4799 41.3323C89.319 41.8148 89.158 42.2973 88.8361 42.9406C88.6752 43.423 88.3533 44.0663 88.1924 44.5488H92.2158H92.3767ZM110.241 48.5695C110.08 48.2478 110.08 47.9262 109.919 47.6045C109.758 47.2829 109.597 46.9612 109.436 46.6396C109.275 46.3179 109.114 45.8354 108.953 45.3529H104.286C104.125 45.8354 103.964 46.3179 103.803 46.6396C103.642 46.9612 103.481 47.4437 103.481 47.6045C103.32 47.9262 103.159 48.2478 103.159 48.5695H102.355L106.7 37.3116L111.045 48.5695H110.241ZM108.631 44.5488C108.47 44.0663 108.149 43.423 107.988 42.9406C107.827 42.4581 107.505 41.8148 107.344 41.3323C107.183 40.8498 107.022 40.3673 106.861 40.0457C106.7 39.724 106.539 39.4024 106.539 39.2416C106.539 39.4024 106.378 39.724 106.217 40.0457C106.056 40.3673 105.895 40.8498 105.734 41.3323C105.574 41.8148 105.413 42.2973 105.091 42.9406C104.93 43.423 104.608 44.0663 104.447 44.5488H108.47H108.631ZM120.219 44.2272C120.058 44.388 119.736 44.5488 119.414 44.7096C119.092 44.8705 118.931 45.0313 118.609 45.0313L121.667 48.5695H120.702L117.805 45.1921H117.644H117.483H115.713V48.4086H115.069V37.4725H117.483C117.966 37.4725 118.448 37.6333 118.931 37.7941C119.414 37.9549 119.897 38.2766 120.219 38.5983C120.702 38.9199 121.023 39.4024 121.184 39.8849C121.345 40.3673 121.506 40.8498 121.506 41.4931C121.506 41.9756 121.345 42.6189 121.184 43.1014C121.023 43.5839 120.702 44.0663 120.219 44.388V44.2272ZM117.322 44.5488C117.805 44.5488 118.127 44.5488 118.609 44.388C119.092 44.2272 119.414 44.0663 119.736 43.7447C120.058 43.423 120.38 43.1014 120.541 42.7797C120.702 42.4581 120.862 41.9756 120.862 41.4931C120.862 41.0106 120.702 40.5282 120.541 40.2065C120.38 39.8849 120.058 39.5632 119.736 39.2416C119.414 38.9199 119.092 38.7591 118.609 38.5983C118.127 38.4374 117.805 38.4374 117.322 38.4374H115.552V44.5488H117.322ZM131.323 37.6333V38.2766H128.105V48.4086H127.461V38.2766H124.242V37.6333H131.484H131.323ZM135.347 37.6333H135.991V48.5695H135.347V37.6333ZM141.623 39.0807C142.106 38.5983 142.75 38.1158 143.394 37.7941C144.037 37.4725 144.842 37.3116 145.486 37.3116C146.13 37.3116 146.773 37.4725 147.417 37.6333C148.061 37.7941 148.544 38.1158 149.026 38.5983L148.544 39.0807C148.061 38.7591 147.578 38.4374 147.095 38.2766C146.612 38.1158 145.969 37.9549 145.486 37.9549C144.842 37.9549 144.198 38.1158 143.555 38.2766C142.911 38.5983 142.428 38.9199 141.945 39.4024C141.462 39.8849 141.14 40.3673 140.819 41.0106C140.497 41.6539 140.497 42.2973 140.497 42.9406C140.497 43.5839 140.658 44.2272 140.819 44.8705C141.14 45.5138 141.462 45.9962 141.945 46.4787C142.428 46.9612 142.911 47.2829 143.555 47.6045C144.198 47.9262 144.842 47.9262 145.486 47.9262C146.13 47.9262 146.773 47.7653 147.256 47.6045C147.739 47.4437 148.222 47.2829 148.704 46.9612V45.1921H145.969V44.5488H149.348V47.4437L149.187 47.6045C148.544 47.9262 148.061 48.2478 147.417 48.4086C147.095 48.5695 146.773 48.5695 146.451 48.7303C146.13 48.7303 145.808 48.7303 145.486 48.7303C144.681 48.7303 144.037 48.5695 143.394 48.2478C142.75 47.9262 142.106 47.6045 141.623 46.9612C141.14 46.4787 140.658 45.8354 140.336 45.1921C140.014 44.5488 139.853 43.7447 139.853 43.1014C139.853 42.2973 140.014 41.6539 140.336 41.0106C140.658 40.3673 140.98 39.724 141.623 39.2416V39.0807ZM153.533 37.6333H154.176V48.5695H153.533V37.6333ZM166.086 48.5695C165.925 48.2478 165.925 47.9262 165.764 47.6045C165.603 47.2829 165.442 46.9612 165.281 46.6396C165.12 46.3179 164.959 45.8354 164.798 45.3529H160.131C159.97 45.8354 159.809 46.3179 159.648 46.6396C159.487 46.9612 159.326 47.4437 159.326 47.6045C159.165 47.9262 159.004 48.2478 159.004 48.5695H158.2L162.545 37.3116L166.89 48.5695H166.086ZM164.476 44.5488C164.315 44.0663 163.993 43.423 163.832 42.9406C163.672 42.4581 163.35 41.8148 163.189 41.3323C163.028 40.8498 162.867 40.3673 162.706 40.0457C162.545 39.724 162.384 39.4024 162.384 39.2416C162.384 39.4024 162.223 39.724 162.062 40.0457C161.901 40.3673 161.74 40.8498 161.579 41.3323C161.418 41.8148 161.258 42.2973 160.936 42.9406C160.775 43.423 160.453 44.0663 160.292 44.5488H164.315H164.476ZM170.753 37.3116C172.201 38.9199 173.489 40.3673 174.615 41.6539C175.098 42.2973 175.581 42.7797 176.064 43.423C176.546 44.0663 177.029 44.5488 177.512 45.0313C177.995 45.5138 178.317 45.9962 178.639 46.3179C178.961 46.6396 179.121 46.9612 179.282 47.122V37.7941H180.087V49.0519C178.639 47.4437 177.351 45.9962 176.225 44.7096C175.742 44.2272 175.259 43.5839 174.776 42.9406C174.293 42.2973 173.811 41.8148 173.328 41.3323C172.845 40.8498 172.523 40.3673 172.201 40.0457C171.879 39.724 171.718 39.4024 171.557 39.2416V48.5695H170.914V37.3116H170.753ZM191.835 48.5695C191.674 48.2478 191.674 47.9262 191.514 47.6045C191.353 47.2829 191.192 46.9612 191.031 46.6396C190.87 46.3179 190.709 45.8354 190.548 45.3529H185.881C185.72 45.8354 185.559 46.3179 185.398 46.6396C185.237 46.9612 185.076 47.4437 185.076 47.6045C184.915 47.9262 184.754 48.2478 184.754 48.5695H183.95L188.295 37.3116L192.64 48.5695H191.835ZM190.226 44.5488C190.065 44.0663 189.743 43.423 189.582 42.9406C189.421 42.4581 189.1 41.8148 188.939 41.3323C188.778 40.8498 188.617 40.3673 188.456 40.0457C188.295 39.724 188.134 39.4024 188.134 39.2416C188.134 39.4024 187.973 39.724 187.812 40.0457C187.651 40.3673 187.49 40.8498 187.329 41.3323C187.168 41.8148 187.007 42.2973 186.685 42.9406C186.525 43.423 186.203 44.0663 186.042 44.5488H190.065H190.226ZM197.307 37.6333V47.9262H202.779V48.5695H196.503V37.6333H197.146H197.307ZM207.607 38.2766V44.5488H211.792V45.3529H207.607V47.9262H212.113V48.5695H206.963V37.6333H212.113V38.2766H207.607Z" fill="#A1754F"/>
</svg>
